<svg width="28" height="28" viewBox="0 0 28 28" fill="none" xmlns="http://www.w3.org/2000/svg">
<rect width="28" height="28" rx="14" fill="#FF6B1A"/>
<path d="M8.96875 22.3848C8.96875 22.1973 9.00977 22.0508 9.0918 21.9453C9.17383 21.8281 9.27344 21.7402 9.39062 21.6816C9.51953 21.623 9.66016 21.5879 9.8125 21.5762C9.97656 21.5527 10.1406 21.541 10.3047 21.541C10.3867 21.541 10.4805 21.5469 10.5859 21.5586C10.6914 21.5703 10.791 21.5762 10.8848 21.5762C10.9434 21.5762 10.9902 21.5703 11.0254 21.5586C11.0723 21.5469 11.1074 21.541 11.1309 21.541C11.3184 21.541 11.5 21.5 11.6758 21.418C11.8516 21.3242 11.998 21.2246 12.1152 21.1191L12.1504 21.084C12.1855 21.0488 12.2031 21.0312 12.2031 21.0312C12.2734 20.4336 12.332 19.8242 12.3789 19.2031C12.4375 18.5703 12.4668 17.9492 12.4668 17.3398C12.4668 16.8945 12.4434 16.4551 12.3965 16.0215C12.3613 15.5762 12.3438 15.1133 12.3438 14.6328V13.3672C12.3672 13.3438 12.3906 13.2852 12.4141 13.1914C12.4375 13.0859 12.4551 13.0215 12.4668 12.998V12.9277C12.4668 12.4941 12.4258 12.084 12.3438 11.6973C12.2617 11.3105 12.2148 10.8945 12.2031 10.4492C12.2031 10.4141 12.2031 10.3496 12.2031 10.2559C12.2031 10.1621 12.2031 10.0508 12.2031 9.92188C12.2148 9.79297 12.2207 9.6582 12.2207 9.51758C12.2207 9.36523 12.2207 9.22461 12.2207 9.0957C12.2207 8.97852 12.2148 8.87891 12.2031 8.79688C12.2031 8.70312 12.2031 8.63281 12.2031 8.58594C12.1914 8.35156 12.0918 8.17578 11.9043 8.05859C11.7285 7.94141 11.5059 7.85937 11.2363 7.8125C10.9668 7.75391 10.6797 7.71289 10.375 7.68945C10.0703 7.6543 9.78906 7.60742 9.53125 7.54883C9.27344 7.47852 9.05664 7.37891 8.88086 7.25C8.70508 7.10938 8.61719 6.9043 8.61719 6.63477C8.61719 6.37695 8.71094 6.20117 8.89844 6.10742C9.09766 6.01367 9.32617 5.9668 9.58398 5.9668C9.7832 5.9668 9.98242 5.97852 10.1816 6.00195C10.3926 6.02539 10.5801 6.03711 10.7441 6.03711C10.7676 6.03711 10.832 6.01953 10.9375 5.98438C11.043 5.9375 11.1074 5.90234 11.1309 5.87891H11.3418C11.7168 5.87891 12.0801 5.9082 12.4316 5.9668C12.7832 6.01367 13.1406 6.03711 13.5039 6.03711H13.6973C13.709 6.03711 13.7617 6.03125 13.8555 6.01953C13.9492 6.00781 14.0488 5.99609 14.1543 5.98438C14.2598 5.96094 14.3594 5.94336 14.4531 5.93164C14.5469 5.9082 14.6055 5.89062 14.6289 5.87891H14.7168H14.752C14.7637 5.89062 14.8105 5.91406 14.8926 5.94922C14.9746 5.97266 15.0566 6.00195 15.1387 6.03711C15.2324 6.07227 15.3145 6.10742 15.3848 6.14258C15.4668 6.17773 15.5195 6.20117 15.543 6.21289C15.5664 6.21289 15.625 6.20703 15.7188 6.19531C15.8125 6.17187 15.9121 6.14844 16.0176 6.125C16.1348 6.10156 16.2402 6.08398 16.334 6.07227C16.4277 6.04883 16.4863 6.03711 16.5098 6.03711H18.0742C18.168 5.95508 18.25 5.9082 18.3203 5.89648C18.4023 5.88477 18.4902 5.87891 18.584 5.87891C18.7832 5.87891 18.9707 5.9082 19.1465 5.9668C19.3223 6.02539 19.5098 6.10742 19.709 6.21289C19.8379 6.24805 19.9141 6.29492 19.9375 6.35352C19.9727 6.41211 19.9902 6.48828 19.9902 6.58203V6.82812C19.9902 6.99219 19.9609 7.12109 19.9023 7.21484C19.8438 7.29687 19.7617 7.36133 19.6562 7.4082C19.5625 7.45508 19.4512 7.48438 19.3223 7.49609C19.1934 7.50781 19.0586 7.51367 18.918 7.51367C18.8242 7.51367 18.7422 7.51367 18.6719 7.51367C18.6133 7.50195 18.543 7.49609 18.4609 7.49609C18.3672 7.49609 18.2793 7.50781 18.1973 7.53125C18.127 7.54297 18.0508 7.57812 17.9688 7.63672C17.6992 7.68359 17.4414 7.71875 17.1953 7.74219C16.9492 7.75391 16.7324 7.78906 16.5449 7.84766C16.3574 7.90625 16.2109 8.01172 16.1055 8.16406C16 8.31641 15.9473 8.55664 15.9473 8.88477C15.9473 9.31836 15.9707 9.75195 16.0176 10.1855C16.0645 10.6191 16.0879 11.0469 16.0879 11.4688V11.6621C16.0879 11.709 16.0762 11.8027 16.0527 11.9434C16.041 12.084 16.0234 12.2363 16 12.4004C15.9883 12.5645 15.9766 12.7168 15.9648 12.8574C15.9531 12.998 15.9473 13.0918 15.9473 13.1387C15.9473 13.2207 15.9414 13.3848 15.9297 13.6309C15.9297 13.8652 15.9297 14.1406 15.9297 14.457C15.9297 14.7734 15.9238 15.1133 15.9121 15.4766C15.9121 15.8398 15.9121 16.1797 15.9121 16.4961C15.9121 16.8125 15.918 17.0938 15.9297 17.3398C15.9414 17.5742 15.9473 17.7266 15.9473 17.7969C15.9473 17.8555 15.9355 18.002 15.9121 18.2363C15.8887 18.4707 15.8594 18.7285 15.8242 19.0098C15.7891 19.2793 15.7539 19.5312 15.7188 19.7656C15.6953 20 15.6777 20.1465 15.666 20.2051V20.3457V20.5039C15.7012 20.5625 15.7363 20.6328 15.7715 20.7148C15.8184 20.7852 15.8652 20.8613 15.9121 20.9434C15.9707 21.0254 16.0293 21.0957 16.0879 21.1543C16.1582 21.2129 16.2402 21.248 16.334 21.2598C16.3809 21.2715 16.4629 21.2891 16.5801 21.3125C16.709 21.3242 16.8438 21.3418 16.9844 21.3652C17.125 21.377 17.2656 21.3945 17.4062 21.418C17.5469 21.4297 17.6582 21.4414 17.7402 21.4531H18.1973C18.3496 21.4531 18.4902 21.459 18.6191 21.4707C18.7598 21.4824 18.8828 21.5176 18.9883 21.5762C19.0938 21.6348 19.1934 21.7285 19.2871 21.8574C19.3809 21.9746 19.4688 22.1445 19.5508 22.3672V22.4902C19.5508 22.6074 19.4863 22.7305 19.3574 22.8594C19.2402 22.9883 19.1348 23.0527 19.041 23.0527C18.9355 23.0527 18.8008 23.0469 18.6367 23.0352C18.4727 23.0352 18.3027 23.0293 18.127 23.0176C17.9512 23.0176 17.7812 23.0117 17.6172 23C17.4531 23 17.3184 23 17.2129 23H11.6758C11.4648 23.082 11.2422 23.1289 11.0078 23.1406C10.7852 23.1523 10.5508 23.1582 10.3047 23.1582H9.54883C9.16211 23.0527 8.96875 22.7949 8.96875 22.3848Z" fill="black"/>
</svg>
