<svg width="28" height="28" viewBox="0 0 28 28" fill="none" xmlns="http://www.w3.org/2000/svg">
<rect width="28" height="28" rx="14" fill="#FF6B1A"/>
<path d="M7.67578 22C7.61328 22 7.52344 22 7.40625 22C7.29688 22 7.18359 22 7.06641 22C6.94922 22.0078 6.83984 22.0117 6.73828 22.0117C6.64453 22.0195 6.58594 22.0273 6.5625 22.0352C6.50781 22.043 6.45312 22.0508 6.39844 22.0586C6.35156 22.0664 6.30469 22.0742 6.25781 22.082C6.21094 22.0898 6.17188 22.0977 6.14062 22.1055C6.125 22.1055 6.09766 22.1094 6.05859 22.1172C6.02734 22.125 5.99219 22.1328 5.95312 22.1406C5.91406 22.1562 5.87891 22.168 5.84766 22.1758C5.81641 22.1836 5.79688 22.1875 5.78906 22.1875H5.08594C4.99219 22.1875 4.90625 22.1914 4.82812 22.1992C4.75781 22.2148 4.6875 22.2227 4.61719 22.2227C4.42188 22.2227 4.23828 22.1914 4.06641 22.1289C3.90234 22.0742 3.75391 21.9492 3.62109 21.7539C3.67578 21.6133 3.75 21.5195 3.84375 21.4727C3.94531 21.4258 4.0625 21.3711 4.19531 21.3086C4.20312 21.3008 4.23047 21.2852 4.27734 21.2617C4.33203 21.2305 4.38672 21.1992 4.44141 21.168C4.50391 21.1367 4.55859 21.1094 4.60547 21.0859C4.66016 21.0625 4.69141 21.0508 4.69922 21.0508H4.95703C4.98047 21.0508 5.01562 21.0391 5.0625 21.0156C5.11719 20.9844 5.15234 20.9688 5.16797 20.9688C5.19922 20.9531 5.25781 20.9375 5.34375 20.9219C5.4375 20.8984 5.53516 20.875 5.63672 20.8516C5.74609 20.8281 5.84766 20.8086 5.94141 20.793C6.03516 20.7773 6.10156 20.7656 6.14062 20.7578C6.33594 20.6172 6.46094 20.4648 6.51562 20.3008C6.57031 20.1367 6.62891 19.9336 6.69141 19.6914V17.5586C6.69141 17.5352 6.69531 17.5039 6.70312 17.4648C6.71094 17.418 6.71875 17.3711 6.72656 17.3242C6.74219 17.2695 6.75391 17.2227 6.76172 17.1836C6.76953 17.1367 6.77734 17.1016 6.78516 17.0781V13.9141C6.80078 13.4141 6.8125 13.0078 6.82031 12.6953C6.83594 12.375 6.84766 12.1211 6.85547 11.9336C6.87109 11.7383 6.87891 11.5898 6.87891 11.4883C6.88672 11.3867 6.89062 11.3008 6.89062 11.2305C6.89062 11.0742 6.88672 10.918 6.87891 10.7617C6.87109 10.5977 6.86719 10.5 6.86719 10.4688C6.89062 10.0938 6.92578 9.74609 6.97266 9.42578C7.02734 9.09766 7.05469 8.74609 7.05469 8.37109C7.05469 8.20703 7.05078 8.05859 7.04297 7.92578C7.04297 7.78516 7.03516 7.65625 7.01953 7.53906C7.00391 7.41406 6.97656 7.28906 6.9375 7.16406C6.90625 7.03906 6.85547 6.90234 6.78516 6.75391C6.76172 6.72266 6.71484 6.69141 6.64453 6.66016C6.58203 6.62109 6.51172 6.58594 6.43359 6.55469C6.36328 6.51563 6.29297 6.48438 6.22266 6.46094C6.16016 6.42969 6.11328 6.41406 6.08203 6.41406C6.05859 6.40625 6.01172 6.39844 5.94141 6.39062C5.87109 6.375 5.79297 6.36328 5.70703 6.35547C5.62891 6.34766 5.55078 6.33984 5.47266 6.33203C5.40234 6.32422 5.35938 6.31641 5.34375 6.30859C5.33594 6.30859 5.29297 6.30078 5.21484 6.28516C5.14453 6.26172 5.10156 6.24219 5.08594 6.22656H4.66406C4.54688 6.22656 4.46875 6.22266 4.42969 6.21484C4.39062 6.20703 4.32422 6.18359 4.23047 6.14453C4.12109 6.10547 4.02344 6.05078 3.9375 5.98047C3.85156 5.90234 3.80859 5.82812 3.80859 5.75781V5.61719C3.89453 5.45312 4 5.35156 4.125 5.3125C4.25 5.27344 4.37891 5.25391 4.51172 5.25391C4.57422 5.25391 4.62891 5.25781 4.67578 5.26562C4.72266 5.27344 4.76953 5.27734 4.81641 5.27734C4.87109 5.27734 4.93359 5.26172 5.00391 5.23047C5.07422 5.19922 5.12891 5.17188 5.16797 5.14844H5.28516H5.41406C5.45312 5.16406 5.53906 5.17969 5.67188 5.19531C5.80469 5.21094 5.94531 5.23047 6.09375 5.25391C6.25 5.26953 6.39453 5.28516 6.52734 5.30078C6.66016 5.30859 6.74609 5.3125 6.78516 5.3125C6.87109 5.32812 7.02734 5.34766 7.25391 5.37109C7.48828 5.38672 7.73047 5.40625 7.98047 5.42969C8.23828 5.44531 8.48047 5.46094 8.70703 5.47656C8.93359 5.49219 9.08984 5.5 9.17578 5.5C9.55078 5.40625 9.91406 5.35156 10.2656 5.33594C10.625 5.32031 10.9805 5.3125 11.332 5.3125H12.3398C12.4258 5.375 12.4766 5.45703 12.4922 5.55859C12.5156 5.65234 12.5273 5.73828 12.5273 5.81641C12.5273 5.94141 12.4961 6.03516 12.4336 6.09766C12.3789 6.16016 12.3047 6.20703 12.2109 6.23828C12.125 6.26172 12.0312 6.27734 11.9297 6.28516C11.8281 6.29297 11.7305 6.30078 11.6367 6.30859C11.582 6.30859 11.4844 6.32031 11.3438 6.34375C11.2109 6.36719 11.1172 6.39062 11.0625 6.41406C11.0547 6.41406 11.0352 6.42188 11.0039 6.4375C10.9727 6.45312 10.9375 6.47266 10.8984 6.49609C10.8594 6.51172 10.8203 6.53125 10.7812 6.55469C10.75 6.57031 10.7305 6.58203 10.7227 6.58984C10.7148 6.58984 10.6914 6.59375 10.6523 6.60156C10.6211 6.60938 10.5859 6.61719 10.5469 6.625C10.5078 6.63281 10.4688 6.64453 10.4297 6.66016C10.3906 6.67578 10.3672 6.6875 10.3594 6.69531C10.3438 6.69531 10.3203 6.69922 10.2891 6.70703C10.2656 6.71484 10.2383 6.72266 10.207 6.73047L10.0898 6.75391C10.0664 6.77734 10.0352 6.80859 9.99609 6.84766C9.95703 6.87891 9.91797 6.91406 9.87891 6.95312C9.84766 6.99219 9.81641 7.02734 9.78516 7.05859C9.75391 7.08984 9.73438 7.10937 9.72656 7.11719C9.72656 7.13281 9.72266 7.16406 9.71484 7.21094C9.70703 7.25781 9.69531 7.3125 9.67969 7.375C9.67188 7.42969 9.66406 7.48437 9.65625 7.53906C9.64844 7.58594 9.64453 7.62109 9.64453 7.64453C9.63672 7.73828 9.62891 7.90234 9.62109 8.13672C9.62109 8.37109 9.61719 8.61719 9.60938 8.875C9.60938 9.13281 9.60938 9.375 9.60938 9.60156C9.60938 9.82812 9.60938 9.98828 9.60938 10.082L9.58594 10.3633V12.1445C9.57031 12.7227 9.55469 13.1797 9.53906 13.5156C9.53125 13.8438 9.51953 14.0977 9.50391 14.2773C9.49609 14.457 9.48828 14.5859 9.48047 14.6641C9.47266 14.7344 9.46875 14.793 9.46875 14.8398C9.44531 15.0352 9.42969 15.2305 9.42188 15.4258C9.41406 15.6211 9.40234 15.8203 9.38672 16.0234C9.37891 16.0312 9.37109 16.0586 9.36328 16.1055C9.35547 16.1445 9.34766 16.1914 9.33984 16.2461C9.33203 16.293 9.32422 16.3398 9.31641 16.3867C9.30859 16.4258 9.30469 16.4531 9.30469 16.4688C9.30469 16.5078 9.30859 16.5977 9.31641 16.7383C9.32422 16.8711 9.33203 17.0195 9.33984 17.1836C9.35547 17.3398 9.36719 17.4883 9.375 17.6289C9.38281 17.7695 9.38672 17.8555 9.38672 17.8867C9.38672 17.9258 9.38281 18.0078 9.375 18.1328C9.36719 18.2578 9.35547 18.3906 9.33984 18.5312C9.33203 18.6719 9.32422 18.8047 9.31641 18.9297C9.30859 19.0547 9.30469 19.1328 9.30469 19.1641V19.6914C9.30469 19.8086 9.30469 19.9336 9.30469 20.0664C9.3125 20.1992 9.33203 20.3281 9.36328 20.4531C9.40234 20.5703 9.45703 20.6758 9.52734 20.7695C9.59766 20.8633 9.69922 20.9297 9.83203 20.9688C9.85547 20.9766 9.90234 20.9844 9.97266 20.9922C10.0508 21 10.1328 21.0078 10.2188 21.0156C10.3125 21.0156 10.3984 21.0195 10.4766 21.0273C10.5625 21.0352 10.6172 21.043 10.6406 21.0508C10.6797 21.0508 10.75 21.0664 10.8516 21.0977C10.9531 21.1289 11.0586 21.1641 11.168 21.2031C11.2852 21.2344 11.3945 21.2695 11.4961 21.3086C11.5977 21.3398 11.6719 21.3672 11.7188 21.3906C11.7656 21.4141 11.793 21.4492 11.8008 21.4961C11.8086 21.5352 11.8125 21.5742 11.8125 21.6133C11.8125 21.7227 11.7852 21.8203 11.7305 21.9062C11.6758 21.9844 11.6094 22.0508 11.5312 22.1055C11.4531 22.168 11.3633 22.2227 11.2617 22.2695C11.168 22.3164 11.082 22.3555 11.0039 22.3867H10.8984C10.8438 22.3789 10.6992 22.3555 10.4648 22.3164C10.2383 22.2852 9.99219 22.2461 9.72656 22.1992C9.46094 22.1602 9.21484 22.1211 8.98828 22.082C8.76172 22.0508 8.62109 22.0352 8.56641 22.0352C8.56641 22.0273 8.52734 22.0195 8.44922 22.0117C8.37891 22.0117 8.29297 22.0078 8.19141 22C8.09766 22 8 22 7.89844 22C7.80469 22 7.73047 22 7.67578 22ZM17.9648 22C17.9023 22 17.8125 22 17.6953 22C17.5859 22 17.4727 22 17.3555 22C17.2383 22.0078 17.1289 22.0117 17.0273 22.0117C16.9336 22.0195 16.875 22.0273 16.8516 22.0352C16.7969 22.043 16.7422 22.0508 16.6875 22.0586C16.6406 22.0664 16.5938 22.0742 16.5469 22.082C16.5 22.0898 16.4609 22.0977 16.4297 22.1055C16.4141 22.1055 16.3867 22.1094 16.3477 22.1172C16.3164 22.125 16.2812 22.1328 16.2422 22.1406C16.2031 22.1562 16.168 22.168 16.1367 22.1758C16.1055 22.1836 16.0859 22.1875 16.0781 22.1875H15.375C15.2812 22.1875 15.1953 22.1914 15.1172 22.1992C15.0469 22.2148 14.9766 22.2227 14.9062 22.2227C14.7109 22.2227 14.5273 22.1914 14.3555 22.1289C14.1914 22.0742 14.043 21.9492 13.9102 21.7539C13.9648 21.6133 14.0391 21.5195 14.1328 21.4727C14.2344 21.4258 14.3516 21.3711 14.4844 21.3086C14.4922 21.3008 14.5195 21.2852 14.5664 21.2617C14.6211 21.2305 14.6758 21.1992 14.7305 21.168C14.793 21.1367 14.8477 21.1094 14.8945 21.0859C14.9492 21.0625 14.9805 21.0508 14.9883 21.0508H15.2461C15.2695 21.0508 15.3047 21.0391 15.3516 21.0156C15.4062 20.9844 15.4414 20.9688 15.457 20.9688C15.4883 20.9531 15.5469 20.9375 15.6328 20.9219C15.7266 20.8984 15.8242 20.875 15.9258 20.8516C16.0352 20.8281 16.1367 20.8086 16.2305 20.793C16.3242 20.7773 16.3906 20.7656 16.4297 20.7578C16.625 20.6172 16.75 20.4648 16.8047 20.3008C16.8594 20.1367 16.918 19.9336 16.9805 19.6914V17.5586C16.9805 17.5352 16.9844 17.5039 16.9922 17.4648C17 17.418 17.0078 17.3711 17.0156 17.3242C17.0312 17.2695 17.043 17.2227 17.0508 17.1836C17.0586 17.1367 17.0664 17.1016 17.0742 17.0781V13.9141C17.0898 13.4141 17.1016 13.0078 17.1094 12.6953C17.125 12.375 17.1367 12.1211 17.1445 11.9336C17.1602 11.7383 17.168 11.5898 17.168 11.4883C17.1758 11.3867 17.1797 11.3008 17.1797 11.2305C17.1797 11.0742 17.1758 10.918 17.168 10.7617C17.1602 10.5977 17.1562 10.5 17.1562 10.4688C17.1797 10.0938 17.2148 9.74609 17.2617 9.42578C17.3164 9.09766 17.3438 8.74609 17.3438 8.37109C17.3438 8.20703 17.3398 8.05859 17.332 7.92578C17.332 7.78516 17.3242 7.65625 17.3086 7.53906C17.293 7.41406 17.2656 7.28906 17.2266 7.16406C17.1953 7.03906 17.1445 6.90234 17.0742 6.75391C17.0508 6.72266 17.0039 6.69141 16.9336 6.66016C16.8711 6.62109 16.8008 6.58594 16.7227 6.55469C16.6523 6.51563 16.582 6.48438 16.5117 6.46094C16.4492 6.42969 16.4023 6.41406 16.3711 6.41406C16.3477 6.40625 16.3008 6.39844 16.2305 6.39062C16.1602 6.375 16.082 6.36328 15.9961 6.35547C15.918 6.34766 15.8398 6.33984 15.7617 6.33203C15.6914 6.32422 15.6484 6.31641 15.6328 6.30859C15.625 6.30859 15.582 6.30078 15.5039 6.28516C15.4336 6.26172 15.3906 6.24219 15.375 6.22656H14.9531C14.8359 6.22656 14.7578 6.22266 14.7188 6.21484C14.6797 6.20703 14.6133 6.18359 14.5195 6.14453C14.4102 6.10547 14.3125 6.05078 14.2266 5.98047C14.1406 5.90234 14.0977 5.82812 14.0977 5.75781V5.61719C14.1836 5.45312 14.2891 5.35156 14.4141 5.3125C14.5391 5.27344 14.668 5.25391 14.8008 5.25391C14.8633 5.25391 14.918 5.25781 14.9648 5.26562C15.0117 5.27344 15.0586 5.27734 15.1055 5.27734C15.1602 5.27734 15.2227 5.26172 15.293 5.23047C15.3633 5.19922 15.418 5.17188 15.457 5.14844H15.5742H15.7031C15.7422 5.16406 15.8281 5.17969 15.9609 5.19531C16.0938 5.21094 16.2344 5.23047 16.3828 5.25391C16.5391 5.26953 16.6836 5.28516 16.8164 5.30078C16.9492 5.30859 17.0352 5.3125 17.0742 5.3125C17.1602 5.32812 17.3164 5.34766 17.543 5.37109C17.7773 5.38672 18.0195 5.40625 18.2695 5.42969C18.5273 5.44531 18.7695 5.46094 18.9961 5.47656C19.2227 5.49219 19.3789 5.5 19.4648 5.5C19.8398 5.40625 20.2031 5.35156 20.5547 5.33594C20.9141 5.32031 21.2695 5.3125 21.6211 5.3125H22.6289C22.7148 5.375 22.7656 5.45703 22.7812 5.55859C22.8047 5.65234 22.8164 5.73828 22.8164 5.81641C22.8164 5.94141 22.7852 6.03516 22.7227 6.09766C22.668 6.16016 22.5938 6.20703 22.5 6.23828C22.4141 6.26172 22.3203 6.27734 22.2188 6.28516C22.1172 6.29297 22.0195 6.30078 21.9258 6.30859C21.8711 6.30859 21.7734 6.32031 21.6328 6.34375C21.5 6.36719 21.4062 6.39062 21.3516 6.41406C21.3438 6.41406 21.3242 6.42188 21.293 6.4375C21.2617 6.45312 21.2266 6.47266 21.1875 6.49609C21.1484 6.51172 21.1094 6.53125 21.0703 6.55469C21.0391 6.57031 21.0195 6.58203 21.0117 6.58984C21.0039 6.58984 20.9805 6.59375 20.9414 6.60156C20.9102 6.60938 20.875 6.61719 20.8359 6.625C20.7969 6.63281 20.7578 6.64453 20.7188 6.66016C20.6797 6.67578 20.6562 6.6875 20.6484 6.69531C20.6328 6.69531 20.6094 6.69922 20.5781 6.70703C20.5547 6.71484 20.5273 6.72266 20.4961 6.73047L20.3789 6.75391C20.3555 6.77734 20.3242 6.80859 20.2852 6.84766C20.2461 6.87891 20.207 6.91406 20.168 6.95312C20.1367 6.99219 20.1055 7.02734 20.0742 7.05859C20.043 7.08984 20.0234 7.10937 20.0156 7.11719C20.0156 7.13281 20.0117 7.16406 20.0039 7.21094C19.9961 7.25781 19.9844 7.3125 19.9688 7.375C19.9609 7.42969 19.9531 7.48437 19.9453 7.53906C19.9375 7.58594 19.9336 7.62109 19.9336 7.64453C19.9258 7.73828 19.918 7.90234 19.9102 8.13672C19.9102 8.37109 19.9062 8.61719 19.8984 8.875C19.8984 9.13281 19.8984 9.375 19.8984 9.60156C19.8984 9.82812 19.8984 9.98828 19.8984 10.082L19.875 10.3633V12.1445C19.8594 12.7227 19.8438 13.1797 19.8281 13.5156C19.8203 13.8438 19.8086 14.0977 19.793 14.2773C19.7852 14.457 19.7773 14.5859 19.7695 14.6641C19.7617 14.7344 19.7578 14.793 19.7578 14.8398C19.7344 15.0352 19.7188 15.2305 19.7109 15.4258C19.7031 15.6211 19.6914 15.8203 19.6758 16.0234C19.668 16.0312 19.6602 16.0586 19.6523 16.1055C19.6445 16.1445 19.6367 16.1914 19.6289 16.2461C19.6211 16.293 19.6133 16.3398 19.6055 16.3867C19.5977 16.4258 19.5938 16.4531 19.5938 16.4688C19.5938 16.5078 19.5977 16.5977 19.6055 16.7383C19.6133 16.8711 19.6211 17.0195 19.6289 17.1836C19.6445 17.3398 19.6562 17.4883 19.6641 17.6289C19.6719 17.7695 19.6758 17.8555 19.6758 17.8867C19.6758 17.9258 19.6719 18.0078 19.6641 18.1328C19.6562 18.2578 19.6445 18.3906 19.6289 18.5312C19.6211 18.6719 19.6133 18.8047 19.6055 18.9297C19.5977 19.0547 19.5938 19.1328 19.5938 19.1641V19.6914C19.5938 19.8086 19.5938 19.9336 19.5938 20.0664C19.6016 20.1992 19.6211 20.3281 19.6523 20.4531C19.6914 20.5703 19.7461 20.6758 19.8164 20.7695C19.8867 20.8633 19.9883 20.9297 20.1211 20.9688C20.1445 20.9766 20.1914 20.9844 20.2617 20.9922C20.3398 21 20.4219 21.0078 20.5078 21.0156C20.6016 21.0156 20.6875 21.0195 20.7656 21.0273C20.8516 21.0352 20.9062 21.043 20.9297 21.0508C20.9688 21.0508 21.0391 21.0664 21.1406 21.0977C21.2422 21.1289 21.3477 21.1641 21.457 21.2031C21.5742 21.2344 21.6836 21.2695 21.7852 21.3086C21.8867 21.3398 21.9609 21.3672 22.0078 21.3906C22.0547 21.4141 22.082 21.4492 22.0898 21.4961C22.0977 21.5352 22.1016 21.5742 22.1016 21.6133C22.1016 21.7227 22.0742 21.8203 22.0195 21.9062C21.9648 21.9844 21.8984 22.0508 21.8203 22.1055C21.7422 22.168 21.6523 22.2227 21.5508 22.2695C21.457 22.3164 21.3711 22.3555 21.293 22.3867H21.1875C21.1328 22.3789 20.9883 22.3555 20.7539 22.3164C20.5273 22.2852 20.2812 22.2461 20.0156 22.1992C19.75 22.1602 19.5039 22.1211 19.2773 22.082C19.0508 22.0508 18.9102 22.0352 18.8555 22.0352C18.8555 22.0273 18.8164 22.0195 18.7383 22.0117C18.668 22.0117 18.582 22.0078 18.4805 22C18.3867 22 18.2891 22 18.1875 22C18.0938 22 18.0195 22 17.9648 22Z" fill="black"/>
</svg>
