<svg width="28" height="28" viewBox="0 0 28 28" fill="none" xmlns="http://www.w3.org/2000/svg">
<rect width="28" height="28" rx="14" fill="#FF6B1A"/>
<path d="M6.50684 20C6.45996 20 6.39258 20 6.30469 20C6.22266 20 6.1377 20 6.0498 20C5.96191 20.0059 5.87988 20.0088 5.80371 20.0088C5.7334 20.0146 5.68945 20.0205 5.67188 20.0264C5.63086 20.0322 5.58984 20.0381 5.54883 20.0439C5.51367 20.0498 5.47852 20.0557 5.44336 20.0615C5.4082 20.0674 5.37891 20.0732 5.35547 20.0791C5.34375 20.0791 5.32324 20.082 5.29395 20.0879C5.27051 20.0938 5.24414 20.0996 5.21484 20.1055C5.18555 20.1172 5.15918 20.126 5.13574 20.1318C5.1123 20.1377 5.09766 20.1406 5.0918 20.1406H4.56445C4.49414 20.1406 4.42969 20.1436 4.37109 20.1494C4.31836 20.1611 4.26562 20.167 4.21289 20.167C4.06641 20.167 3.92871 20.1436 3.7998 20.0967C3.67676 20.0557 3.56543 19.9619 3.46582 19.8154C3.50684 19.71 3.5625 19.6396 3.63281 19.6045C3.70898 19.5693 3.79688 19.5283 3.89648 19.4814C3.90234 19.4756 3.92285 19.4639 3.95801 19.4463C3.99902 19.4229 4.04004 19.3994 4.08105 19.376C4.12793 19.3525 4.16895 19.332 4.2041 19.3145C4.24512 19.2969 4.26855 19.2881 4.27441 19.2881H4.46777C4.48535 19.2881 4.51172 19.2793 4.54688 19.2617C4.58789 19.2383 4.61426 19.2266 4.62598 19.2266C4.64941 19.2148 4.69336 19.2031 4.75781 19.1914C4.82812 19.1738 4.90137 19.1562 4.97754 19.1387C5.05957 19.1211 5.13574 19.1064 5.20605 19.0947C5.27637 19.083 5.32617 19.0742 5.35547 19.0684C5.50195 18.9629 5.5957 18.8486 5.63672 18.7256C5.67773 18.6025 5.72168 18.4502 5.76855 18.2686V16.6689C5.76855 16.6514 5.77148 16.6279 5.77734 16.5986C5.7832 16.5635 5.78906 16.5283 5.79492 16.4932C5.80664 16.4521 5.81543 16.417 5.82129 16.3877C5.82715 16.3525 5.83301 16.3262 5.83887 16.3086V13.9355C5.85059 13.5605 5.85938 13.2559 5.86523 13.0215C5.87695 12.7812 5.88574 12.5908 5.8916 12.4502C5.90332 12.3037 5.90918 12.1924 5.90918 12.1162C5.91504 12.04 5.91797 11.9756 5.91797 11.9229C5.91797 11.8057 5.91504 11.6885 5.90918 11.5713C5.90332 11.4482 5.90039 11.375 5.90039 11.3516C5.91797 11.0703 5.94434 10.8096 5.97949 10.5693C6.02051 10.3232 6.04102 10.0596 6.04102 9.77832C6.04102 9.65527 6.03809 9.54395 6.03223 9.44434C6.03223 9.33887 6.02637 9.24219 6.01465 9.1543C6.00293 9.06055 5.98242 8.9668 5.95312 8.87305C5.92969 8.7793 5.8916 8.67676 5.83887 8.56543C5.82129 8.54199 5.78613 8.51855 5.7334 8.49512C5.68652 8.46582 5.63379 8.43945 5.5752 8.41602C5.52246 8.38672 5.46973 8.36328 5.41699 8.3457C5.37012 8.32227 5.33496 8.31055 5.31152 8.31055C5.29395 8.30469 5.25879 8.29883 5.20605 8.29297C5.15332 8.28125 5.09473 8.27246 5.03027 8.2666C4.97168 8.26074 4.91309 8.25488 4.85449 8.24902C4.80176 8.24316 4.76953 8.2373 4.75781 8.23145C4.75195 8.23145 4.71973 8.22559 4.66113 8.21387C4.6084 8.19629 4.57617 8.18164 4.56445 8.16992H4.24805C4.16016 8.16992 4.10156 8.16699 4.07227 8.16113C4.04297 8.15527 3.99316 8.1377 3.92285 8.1084C3.84082 8.0791 3.76758 8.03809 3.70312 7.98535C3.63867 7.92676 3.60645 7.87109 3.60645 7.81836V7.71289C3.6709 7.58984 3.75 7.51367 3.84375 7.48438C3.9375 7.45508 4.03418 7.44043 4.13379 7.44043C4.18066 7.44043 4.22168 7.44336 4.25684 7.44922C4.29199 7.45508 4.32715 7.45801 4.3623 7.45801C4.40332 7.45801 4.4502 7.44629 4.50293 7.42285C4.55566 7.39941 4.59668 7.37891 4.62598 7.36133H4.71387H4.81055C4.83984 7.37305 4.9043 7.38477 5.00391 7.39648C5.10352 7.4082 5.20898 7.42285 5.32031 7.44043C5.4375 7.45215 5.5459 7.46387 5.64551 7.47559C5.74512 7.48145 5.80957 7.48438 5.83887 7.48438C5.90332 7.49609 6.02051 7.51074 6.19043 7.52832C6.36621 7.54004 6.54785 7.55469 6.73535 7.57227C6.92871 7.58398 7.11035 7.5957 7.28027 7.60742C7.4502 7.61914 7.56738 7.625 7.63184 7.625C7.91309 7.55469 8.18555 7.51367 8.44922 7.50195C8.71875 7.49023 8.98535 7.48438 9.24902 7.48438H10.0049C10.0693 7.53125 10.1074 7.59277 10.1191 7.66895C10.1367 7.73926 10.1455 7.80371 10.1455 7.8623C10.1455 7.95605 10.1221 8.02637 10.0752 8.07324C10.0342 8.12012 9.97852 8.15527 9.9082 8.17871C9.84375 8.19629 9.77344 8.20801 9.69727 8.21387C9.62109 8.21973 9.54785 8.22559 9.47754 8.23145C9.43652 8.23145 9.36328 8.24023 9.25781 8.25781C9.1582 8.27539 9.08789 8.29297 9.04688 8.31055C9.04102 8.31055 9.02637 8.31641 9.00293 8.32812C8.97949 8.33984 8.95312 8.35449 8.92383 8.37207C8.89453 8.38379 8.86523 8.39844 8.83594 8.41602C8.8125 8.42773 8.79785 8.43652 8.79199 8.44238C8.78613 8.44238 8.76855 8.44531 8.73926 8.45117C8.71582 8.45703 8.68945 8.46289 8.66016 8.46875C8.63086 8.47461 8.60156 8.4834 8.57227 8.49512C8.54297 8.50684 8.52539 8.51562 8.51953 8.52148C8.50781 8.52148 8.49023 8.52441 8.4668 8.53027C8.44922 8.53613 8.42871 8.54199 8.40527 8.54785L8.31738 8.56543C8.2998 8.58301 8.27637 8.60645 8.24707 8.63574C8.21777 8.65918 8.18848 8.68555 8.15918 8.71484C8.13574 8.74414 8.1123 8.77051 8.08887 8.79395C8.06543 8.81738 8.05078 8.83203 8.04492 8.83789C8.04492 8.84961 8.04199 8.87305 8.03613 8.9082C8.03027 8.94336 8.02148 8.98438 8.00977 9.03125C8.00391 9.07227 7.99805 9.11328 7.99219 9.1543C7.98633 9.18945 7.9834 9.21582 7.9834 9.2334C7.97754 9.30371 7.97168 9.42676 7.96582 9.60254C7.96582 9.77832 7.96289 9.96289 7.95703 10.1562C7.95703 10.3496 7.95703 10.5312 7.95703 10.7012C7.95703 10.8711 7.95703 10.9912 7.95703 11.0615L7.93945 11.2725V12.6084C7.92773 13.042 7.91602 13.3848 7.9043 13.6367C7.89844 13.8828 7.88965 14.0732 7.87793 14.208C7.87207 14.3428 7.86621 14.4395 7.86035 14.498C7.85449 14.5508 7.85156 14.5947 7.85156 14.6299C7.83398 14.7764 7.82227 14.9229 7.81641 15.0693C7.81055 15.2158 7.80176 15.3652 7.79004 15.5176C7.78418 15.5234 7.77832 15.5439 7.77246 15.5791C7.7666 15.6084 7.76074 15.6436 7.75488 15.6846C7.74902 15.7197 7.74316 15.7549 7.7373 15.79C7.73145 15.8193 7.72852 15.8398 7.72852 15.8516C7.72852 15.8809 7.73145 15.9482 7.7373 16.0537C7.74316 16.1533 7.74902 16.2646 7.75488 16.3877C7.7666 16.5049 7.77539 16.6162 7.78125 16.7217C7.78711 16.8271 7.79004 16.8916 7.79004 16.915C7.79004 16.9443 7.78711 17.0059 7.78125 17.0996C7.77539 17.1934 7.7666 17.293 7.75488 17.3984C7.74902 17.5039 7.74316 17.6035 7.7373 17.6973C7.73145 17.791 7.72852 17.8496 7.72852 17.873V18.2686C7.72852 18.3564 7.72852 18.4502 7.72852 18.5498C7.73438 18.6494 7.74902 18.7461 7.77246 18.8398C7.80176 18.9277 7.84277 19.0068 7.89551 19.0771C7.94824 19.1475 8.02441 19.1973 8.12402 19.2266C8.1416 19.2324 8.17676 19.2383 8.22949 19.2441C8.28809 19.25 8.34961 19.2559 8.41406 19.2617C8.48438 19.2617 8.54883 19.2646 8.60742 19.2705C8.67188 19.2764 8.71289 19.2822 8.73047 19.2881C8.75977 19.2881 8.8125 19.2998 8.88867 19.3232C8.96484 19.3467 9.04395 19.373 9.12598 19.4023C9.21387 19.4258 9.2959 19.4521 9.37207 19.4814C9.44824 19.5049 9.50391 19.5254 9.53906 19.543C9.57422 19.5605 9.59473 19.5869 9.60059 19.6221C9.60645 19.6514 9.60938 19.6807 9.60938 19.71C9.60938 19.792 9.58887 19.8652 9.54785 19.9297C9.50684 19.9883 9.45703 20.0381 9.39844 20.0791C9.33984 20.126 9.27246 20.167 9.19629 20.2021C9.12598 20.2373 9.06152 20.2666 9.00293 20.29H8.92383C8.88281 20.2842 8.77441 20.2666 8.59863 20.2373C8.42871 20.2139 8.24414 20.1846 8.04492 20.1494C7.8457 20.1201 7.66113 20.0908 7.49121 20.0615C7.32129 20.0381 7.21582 20.0264 7.1748 20.0264C7.1748 20.0205 7.14551 20.0146 7.08691 20.0088C7.03418 20.0088 6.96973 20.0059 6.89355 20C6.82324 20 6.75 20 6.67383 20C6.60352 20 6.54785 20 6.50684 20ZM14.2236 20C14.1768 20 14.1094 20 14.0215 20C13.9395 20 13.8545 20 13.7666 20C13.6787 20.0059 13.5967 20.0088 13.5205 20.0088C13.4502 20.0146 13.4062 20.0205 13.3887 20.0264C13.3477 20.0322 13.3066 20.0381 13.2656 20.0439C13.2305 20.0498 13.1953 20.0557 13.1602 20.0615C13.125 20.0674 13.0957 20.0732 13.0723 20.0791C13.0605 20.0791 13.04 20.082 13.0107 20.0879C12.9873 20.0938 12.9609 20.0996 12.9316 20.1055C12.9023 20.1172 12.876 20.126 12.8525 20.1318C12.8291 20.1377 12.8145 20.1406 12.8086 20.1406H12.2812C12.2109 20.1406 12.1465 20.1436 12.0879 20.1494C12.0352 20.1611 11.9824 20.167 11.9297 20.167C11.7832 20.167 11.6455 20.1436 11.5166 20.0967C11.3936 20.0557 11.2822 19.9619 11.1826 19.8154C11.2236 19.71 11.2793 19.6396 11.3496 19.6045C11.4258 19.5693 11.5137 19.5283 11.6133 19.4814C11.6191 19.4756 11.6396 19.4639 11.6748 19.4463C11.7158 19.4229 11.7568 19.3994 11.7979 19.376C11.8447 19.3525 11.8857 19.332 11.9209 19.3145C11.9619 19.2969 11.9854 19.2881 11.9912 19.2881H12.1846C12.2021 19.2881 12.2285 19.2793 12.2637 19.2617C12.3047 19.2383 12.3311 19.2266 12.3428 19.2266C12.3662 19.2148 12.4102 19.2031 12.4746 19.1914C12.5449 19.1738 12.6182 19.1562 12.6943 19.1387C12.7764 19.1211 12.8525 19.1064 12.9229 19.0947C12.9932 19.083 13.043 19.0742 13.0723 19.0684C13.2188 18.9629 13.3125 18.8486 13.3535 18.7256C13.3945 18.6025 13.4385 18.4502 13.4854 18.2686V16.6689C13.4854 16.6514 13.4883 16.6279 13.4941 16.5986C13.5 16.5635 13.5059 16.5283 13.5117 16.4932C13.5234 16.4521 13.5322 16.417 13.5381 16.3877C13.5439 16.3525 13.5498 16.3262 13.5557 16.3086V13.9355C13.5674 13.5605 13.5762 13.2559 13.582 13.0215C13.5938 12.7812 13.6025 12.5908 13.6084 12.4502C13.6201 12.3037 13.626 12.1924 13.626 12.1162C13.6318 12.04 13.6348 11.9756 13.6348 11.9229C13.6348 11.8057 13.6318 11.6885 13.626 11.5713C13.6201 11.4482 13.6172 11.375 13.6172 11.3516C13.6348 11.0703 13.6611 10.8096 13.6963 10.5693C13.7373 10.3232 13.7578 10.0596 13.7578 9.77832C13.7578 9.65527 13.7549 9.54395 13.749 9.44434C13.749 9.33887 13.7432 9.24219 13.7314 9.1543C13.7197 9.06055 13.6992 8.9668 13.6699 8.87305C13.6465 8.7793 13.6084 8.67676 13.5557 8.56543C13.5381 8.54199 13.5029 8.51855 13.4502 8.49512C13.4033 8.46582 13.3506 8.43945 13.292 8.41602C13.2393 8.38672 13.1865 8.36328 13.1338 8.3457C13.0869 8.32227 13.0518 8.31055 13.0283 8.31055C13.0107 8.30469 12.9756 8.29883 12.9229 8.29297C12.8701 8.28125 12.8115 8.27246 12.7471 8.2666C12.6885 8.26074 12.6299 8.25488 12.5713 8.24902C12.5186 8.24316 12.4863 8.2373 12.4746 8.23145C12.4688 8.23145 12.4365 8.22559 12.3779 8.21387C12.3252 8.19629 12.293 8.18164 12.2812 8.16992H11.9648C11.877 8.16992 11.8184 8.16699 11.7891 8.16113C11.7598 8.15527 11.71 8.1377 11.6396 8.1084C11.5576 8.0791 11.4844 8.03809 11.4199 7.98535C11.3555 7.92676 11.3232 7.87109 11.3232 7.81836V7.71289C11.3877 7.58984 11.4668 7.51367 11.5605 7.48438C11.6543 7.45508 11.751 7.44043 11.8506 7.44043C11.8975 7.44043 11.9385 7.44336 11.9736 7.44922C12.0088 7.45508 12.0439 7.45801 12.0791 7.45801C12.1201 7.45801 12.167 7.44629 12.2197 7.42285C12.2725 7.39941 12.3135 7.37891 12.3428 7.36133H12.4307H12.5273C12.5566 7.37305 12.6211 7.38477 12.7207 7.39648C12.8203 7.4082 12.9258 7.42285 13.0371 7.44043C13.1543 7.45215 13.2627 7.46387 13.3623 7.47559C13.4619 7.48145 13.5264 7.48438 13.5557 7.48438C13.6201 7.49609 13.7373 7.51074 13.9072 7.52832C14.083 7.54004 14.2646 7.55469 14.4521 7.57227C14.6455 7.58398 14.8271 7.5957 14.9971 7.60742C15.167 7.61914 15.2842 7.625 15.3486 7.625C15.6299 7.55469 15.9023 7.51367 16.166 7.50195C16.4355 7.49023 16.7021 7.48438 16.9658 7.48438H17.7217C17.7861 7.53125 17.8242 7.59277 17.8359 7.66895C17.8535 7.73926 17.8623 7.80371 17.8623 7.8623C17.8623 7.95605 17.8389 8.02637 17.792 8.07324C17.751 8.12012 17.6953 8.15527 17.625 8.17871C17.5605 8.19629 17.4902 8.20801 17.4141 8.21387C17.3379 8.21973 17.2646 8.22559 17.1943 8.23145C17.1533 8.23145 17.0801 8.24023 16.9746 8.25781C16.875 8.27539 16.8047 8.29297 16.7637 8.31055C16.7578 8.31055 16.7432 8.31641 16.7197 8.32812C16.6963 8.33984 16.6699 8.35449 16.6406 8.37207C16.6113 8.38379 16.582 8.39844 16.5527 8.41602C16.5293 8.42773 16.5146 8.43652 16.5088 8.44238C16.5029 8.44238 16.4854 8.44531 16.4561 8.45117C16.4326 8.45703 16.4062 8.46289 16.377 8.46875C16.3477 8.47461 16.3184 8.4834 16.2891 8.49512C16.2598 8.50684 16.2422 8.51562 16.2363 8.52148C16.2246 8.52148 16.207 8.52441 16.1836 8.53027C16.166 8.53613 16.1455 8.54199 16.1221 8.54785L16.0342 8.56543C16.0166 8.58301 15.9932 8.60645 15.9639 8.63574C15.9346 8.65918 15.9053 8.68555 15.876 8.71484C15.8525 8.74414 15.8291 8.77051 15.8057 8.79395C15.7822 8.81738 15.7676 8.83203 15.7617 8.83789C15.7617 8.84961 15.7588 8.87305 15.7529 8.9082C15.7471 8.94336 15.7383 8.98438 15.7266 9.03125C15.7207 9.07227 15.7148 9.11328 15.709 9.1543C15.7031 9.18945 15.7002 9.21582 15.7002 9.2334C15.6943 9.30371 15.6885 9.42676 15.6826 9.60254C15.6826 9.77832 15.6797 9.96289 15.6738 10.1562C15.6738 10.3496 15.6738 10.5312 15.6738 10.7012C15.6738 10.8711 15.6738 10.9912 15.6738 11.0615L15.6562 11.2725V12.6084C15.6445 13.042 15.6328 13.3848 15.6211 13.6367C15.6152 13.8828 15.6064 14.0732 15.5947 14.208C15.5889 14.3428 15.583 14.4395 15.5771 14.498C15.5713 14.5508 15.5684 14.5947 15.5684 14.6299C15.5508 14.7764 15.5391 14.9229 15.5332 15.0693C15.5273 15.2158 15.5186 15.3652 15.5068 15.5176C15.501 15.5234 15.4951 15.5439 15.4893 15.5791C15.4834 15.6084 15.4775 15.6436 15.4717 15.6846C15.4658 15.7197 15.46 15.7549 15.4541 15.79C15.4482 15.8193 15.4453 15.8398 15.4453 15.8516C15.4453 15.8809 15.4482 15.9482 15.4541 16.0537C15.46 16.1533 15.4658 16.2646 15.4717 16.3877C15.4834 16.5049 15.4922 16.6162 15.498 16.7217C15.5039 16.8271 15.5068 16.8916 15.5068 16.915C15.5068 16.9443 15.5039 17.0059 15.498 17.0996C15.4922 17.1934 15.4834 17.293 15.4717 17.3984C15.4658 17.5039 15.46 17.6035 15.4541 17.6973C15.4482 17.791 15.4453 17.8496 15.4453 17.873V18.2686C15.4453 18.3564 15.4453 18.4502 15.4453 18.5498C15.4512 18.6494 15.4658 18.7461 15.4893 18.8398C15.5186 18.9277 15.5596 19.0068 15.6123 19.0771C15.665 19.1475 15.7412 19.1973 15.8408 19.2266C15.8584 19.2324 15.8936 19.2383 15.9463 19.2441C16.0049 19.25 16.0664 19.2559 16.1309 19.2617C16.2012 19.2617 16.2656 19.2646 16.3242 19.2705C16.3887 19.2764 16.4297 19.2822 16.4473 19.2881C16.4766 19.2881 16.5293 19.2998 16.6055 19.3232C16.6816 19.3467 16.7607 19.373 16.8428 19.4023C16.9307 19.4258 17.0127 19.4521 17.0889 19.4814C17.165 19.5049 17.2207 19.5254 17.2559 19.543C17.291 19.5605 17.3115 19.5869 17.3174 19.6221C17.3232 19.6514 17.3262 19.6807 17.3262 19.71C17.3262 19.792 17.3057 19.8652 17.2646 19.9297C17.2236 19.9883 17.1738 20.0381 17.1152 20.0791C17.0566 20.126 16.9893 20.167 16.9131 20.2021C16.8428 20.2373 16.7783 20.2666 16.7197 20.29H16.6406C16.5996 20.2842 16.4912 20.2666 16.3154 20.2373C16.1455 20.2139 15.9609 20.1846 15.7617 20.1494C15.5625 20.1201 15.3779 20.0908 15.208 20.0615C15.0381 20.0381 14.9326 20.0264 14.8916 20.0264C14.8916 20.0205 14.8623 20.0146 14.8037 20.0088C14.751 20.0088 14.6865 20.0059 14.6104 20C14.54 20 14.4668 20 14.3906 20C14.3203 20 14.2646 20 14.2236 20ZM21.9404 20C21.8936 20 21.8262 20 21.7383 20C21.6562 20 21.5713 20 21.4834 20C21.3955 20.0059 21.3135 20.0088 21.2373 20.0088C21.167 20.0146 21.123 20.0205 21.1055 20.0264C21.0645 20.0322 21.0234 20.0381 20.9824 20.0439C20.9473 20.0498 20.9121 20.0557 20.877 20.0615C20.8418 20.0674 20.8125 20.0732 20.7891 20.0791C20.7773 20.0791 20.7568 20.082 20.7275 20.0879C20.7041 20.0938 20.6777 20.0996 20.6484 20.1055C20.6191 20.1172 20.5928 20.126 20.5693 20.1318C20.5459 20.1377 20.5312 20.1406 20.5254 20.1406H19.998C19.9277 20.1406 19.8633 20.1436 19.8047 20.1494C19.752 20.1611 19.6992 20.167 19.6465 20.167C19.5 20.167 19.3623 20.1436 19.2334 20.0967C19.1104 20.0557 18.999 19.9619 18.8994 19.8154C18.9404 19.71 18.9961 19.6396 19.0664 19.6045C19.1426 19.5693 19.2305 19.5283 19.3301 19.4814C19.3359 19.4756 19.3564 19.4639 19.3916 19.4463C19.4326 19.4229 19.4736 19.3994 19.5146 19.376C19.5615 19.3525 19.6025 19.332 19.6377 19.3145C19.6787 19.2969 19.7021 19.2881 19.708 19.2881H19.9014C19.9189 19.2881 19.9453 19.2793 19.9805 19.2617C20.0215 19.2383 20.0479 19.2266 20.0596 19.2266C20.083 19.2148 20.127 19.2031 20.1914 19.1914C20.2617 19.1738 20.335 19.1562 20.4111 19.1387C20.4932 19.1211 20.5693 19.1064 20.6396 19.0947C20.71 19.083 20.7598 19.0742 20.7891 19.0684C20.9355 18.9629 21.0293 18.8486 21.0703 18.7256C21.1113 18.6025 21.1553 18.4502 21.2021 18.2686V16.6689C21.2021 16.6514 21.2051 16.6279 21.2109 16.5986C21.2168 16.5635 21.2227 16.5283 21.2285 16.4932C21.2402 16.4521 21.249 16.417 21.2549 16.3877C21.2607 16.3525 21.2666 16.3262 21.2725 16.3086V13.9355C21.2842 13.5605 21.293 13.2559 21.2988 13.0215C21.3105 12.7812 21.3193 12.5908 21.3252 12.4502C21.3369 12.3037 21.3428 12.1924 21.3428 12.1162C21.3486 12.04 21.3516 11.9756 21.3516 11.9229C21.3516 11.8057 21.3486 11.6885 21.3428 11.5713C21.3369 11.4482 21.334 11.375 21.334 11.3516C21.3516 11.0703 21.3779 10.8096 21.4131 10.5693C21.4541 10.3232 21.4746 10.0596 21.4746 9.77832C21.4746 9.65527 21.4717 9.54395 21.4658 9.44434C21.4658 9.33887 21.46 9.24219 21.4482 9.1543C21.4365 9.06055 21.416 8.9668 21.3867 8.87305C21.3633 8.7793 21.3252 8.67676 21.2725 8.56543C21.2549 8.54199 21.2197 8.51855 21.167 8.49512C21.1201 8.46582 21.0674 8.43945 21.0088 8.41602C20.9561 8.38672 20.9033 8.36328 20.8506 8.3457C20.8037 8.32227 20.7686 8.31055 20.7451 8.31055C20.7275 8.30469 20.6924 8.29883 20.6396 8.29297C20.5869 8.28125 20.5283 8.27246 20.4639 8.2666C20.4053 8.26074 20.3467 8.25488 20.2881 8.24902C20.2354 8.24316 20.2031 8.2373 20.1914 8.23145C20.1855 8.23145 20.1533 8.22559 20.0947 8.21387C20.042 8.19629 20.0098 8.18164 19.998 8.16992H19.6816C19.5938 8.16992 19.5352 8.16699 19.5059 8.16113C19.4766 8.15527 19.4268 8.1377 19.3564 8.1084C19.2744 8.0791 19.2012 8.03809 19.1367 7.98535C19.0723 7.92676 19.04 7.87109 19.04 7.81836V7.71289C19.1045 7.58984 19.1836 7.51367 19.2773 7.48438C19.3711 7.45508 19.4678 7.44043 19.5674 7.44043C19.6143 7.44043 19.6553 7.44336 19.6904 7.44922C19.7256 7.45508 19.7607 7.45801 19.7959 7.45801C19.8369 7.45801 19.8838 7.44629 19.9365 7.42285C19.9893 7.39941 20.0303 7.37891 20.0596 7.36133H20.1475H20.2441C20.2734 7.37305 20.3379 7.38477 20.4375 7.39648C20.5371 7.4082 20.6426 7.42285 20.7539 7.44043C20.8711 7.45215 20.9795 7.46387 21.0791 7.47559C21.1787 7.48145 21.2432 7.48438 21.2725 7.48438C21.3369 7.49609 21.4541 7.51074 21.624 7.52832C21.7998 7.54004 21.9814 7.55469 22.1689 7.57227C22.3623 7.58398 22.5439 7.5957 22.7139 7.60742C22.8838 7.61914 23.001 7.625 23.0654 7.625C23.3467 7.55469 23.6191 7.51367 23.8828 7.50195C24.1523 7.49023 24.4189 7.48438 24.6826 7.48438H25.4385C25.5029 7.53125 25.541 7.59277 25.5527 7.66895C25.5703 7.73926 25.5791 7.80371 25.5791 7.8623C25.5791 7.95605 25.5557 8.02637 25.5088 8.07324C25.4678 8.12012 25.4121 8.15527 25.3418 8.17871C25.2773 8.19629 25.207 8.20801 25.1309 8.21387C25.0547 8.21973 24.9814 8.22559 24.9111 8.23145C24.8701 8.23145 24.7969 8.24023 24.6914 8.25781C24.5918 8.27539 24.5215 8.29297 24.4805 8.31055C24.4746 8.31055 24.46 8.31641 24.4365 8.32812C24.4131 8.33984 24.3867 8.35449 24.3574 8.37207C24.3281 8.38379 24.2988 8.39844 24.2695 8.41602C24.2461 8.42773 24.2314 8.43652 24.2256 8.44238C24.2197 8.44238 24.2021 8.44531 24.1729 8.45117C24.1494 8.45703 24.123 8.46289 24.0938 8.46875C24.0645 8.47461 24.0352 8.4834 24.0059 8.49512C23.9766 8.50684 23.959 8.51562 23.9531 8.52148C23.9414 8.52148 23.9238 8.52441 23.9004 8.53027C23.8828 8.53613 23.8623 8.54199 23.8389 8.54785L23.751 8.56543C23.7334 8.58301 23.71 8.60645 23.6807 8.63574C23.6514 8.65918 23.6221 8.68555 23.5928 8.71484C23.5693 8.74414 23.5459 8.77051 23.5225 8.79395C23.499 8.81738 23.4844 8.83203 23.4785 8.83789C23.4785 8.84961 23.4756 8.87305 23.4697 8.9082C23.4639 8.94336 23.4551 8.98438 23.4434 9.03125C23.4375 9.07227 23.4316 9.11328 23.4258 9.1543C23.4199 9.18945 23.417 9.21582 23.417 9.2334C23.4111 9.30371 23.4053 9.42676 23.3994 9.60254C23.3994 9.77832 23.3965 9.96289 23.3906 10.1562C23.3906 10.3496 23.3906 10.5312 23.3906 10.7012C23.3906 10.8711 23.3906 10.9912 23.3906 11.0615L23.373 11.2725V12.6084C23.3613 13.042 23.3496 13.3848 23.3379 13.6367C23.332 13.8828 23.3232 14.0732 23.3115 14.208C23.3057 14.3428 23.2998 14.4395 23.2939 14.498C23.2881 14.5508 23.2852 14.5947 23.2852 14.6299C23.2676 14.7764 23.2559 14.9229 23.25 15.0693C23.2441 15.2158 23.2354 15.3652 23.2236 15.5176C23.2178 15.5234 23.2119 15.5439 23.2061 15.5791C23.2002 15.6084 23.1943 15.6436 23.1885 15.6846C23.1826 15.7197 23.1768 15.7549 23.1709 15.79C23.165 15.8193 23.1621 15.8398 23.1621 15.8516C23.1621 15.8809 23.165 15.9482 23.1709 16.0537C23.1768 16.1533 23.1826 16.2646 23.1885 16.3877C23.2002 16.5049 23.209 16.6162 23.2148 16.7217C23.2207 16.8271 23.2236 16.8916 23.2236 16.915C23.2236 16.9443 23.2207 17.0059 23.2148 17.0996C23.209 17.1934 23.2002 17.293 23.1885 17.3984C23.1826 17.5039 23.1768 17.6035 23.1709 17.6973C23.165 17.791 23.1621 17.8496 23.1621 17.873V18.2686C23.1621 18.3564 23.1621 18.4502 23.1621 18.5498C23.168 18.6494 23.1826 18.7461 23.2061 18.8398C23.2354 18.9277 23.2764 19.0068 23.3291 19.0771C23.3818 19.1475 23.458 19.1973 23.5576 19.2266C23.5752 19.2324 23.6104 19.2383 23.6631 19.2441C23.7217 19.25 23.7832 19.2559 23.8477 19.2617C23.918 19.2617 23.9824 19.2646 24.041 19.2705C24.1055 19.2764 24.1465 19.2822 24.1641 19.2881C24.1934 19.2881 24.2461 19.2998 24.3223 19.3232C24.3984 19.3467 24.4775 19.373 24.5596 19.4023C24.6475 19.4258 24.7295 19.4521 24.8057 19.4814C24.8818 19.5049 24.9375 19.5254 24.9727 19.543C25.0078 19.5605 25.0283 19.5869 25.0342 19.6221C25.04 19.6514 25.043 19.6807 25.043 19.71C25.043 19.792 25.0225 19.8652 24.9814 19.9297C24.9404 19.9883 24.8906 20.0381 24.832 20.0791C24.7734 20.126 24.7061 20.167 24.6299 20.2021C24.5596 20.2373 24.4951 20.2666 24.4365 20.29H24.3574C24.3164 20.2842 24.208 20.2666 24.0322 20.2373C23.8623 20.2139 23.6777 20.1846 23.4785 20.1494C23.2793 20.1201 23.0947 20.0908 22.9248 20.0615C22.7549 20.0381 22.6494 20.0264 22.6084 20.0264C22.6084 20.0205 22.5791 20.0146 22.5205 20.0088C22.4678 20.0088 22.4033 20.0059 22.3271 20C22.2568 20 22.1836 20 22.1074 20C22.0371 20 21.9814 20 21.9404 20Z" fill="black"/>
</svg>
