<svg width="28" height="28" viewBox="0 0 28 28" fill="none" xmlns="http://www.w3.org/2000/svg">
<rect width="28" height="28" rx="14" fill="#FF6B1A"/>
<path d="M7.50684 22C7.45996 22 7.39258 22 7.30469 22C7.22266 22 7.1377 22 7.0498 22C6.96191 22.0059 6.87988 22.0088 6.80371 22.0088C6.7334 22.0146 6.68945 22.0205 6.67188 22.0264C6.63086 22.0322 6.58984 22.0381 6.54883 22.0439C6.51367 22.0498 6.47852 22.0557 6.44336 22.0615C6.4082 22.0674 6.37891 22.0732 6.35547 22.0791C6.34375 22.0791 6.32324 22.082 6.29395 22.0879C6.27051 22.0938 6.24414 22.0996 6.21484 22.1055C6.18555 22.1172 6.15918 22.126 6.13574 22.1318C6.1123 22.1377 6.09766 22.1406 6.0918 22.1406H5.56445C5.49414 22.1406 5.42969 22.1436 5.37109 22.1494C5.31836 22.1611 5.26562 22.167 5.21289 22.167C5.06641 22.167 4.92871 22.1436 4.7998 22.0967C4.67676 22.0557 4.56543 21.9619 4.46582 21.8154C4.50684 21.71 4.5625 21.6396 4.63281 21.6045C4.70898 21.5693 4.79688 21.5283 4.89648 21.4814C4.90234 21.4756 4.92285 21.4639 4.95801 21.4463C4.99902 21.4229 5.04004 21.3994 5.08105 21.376C5.12793 21.3525 5.16895 21.332 5.2041 21.3145C5.24512 21.2969 5.26855 21.2881 5.27441 21.2881H5.46777C5.48535 21.2881 5.51172 21.2793 5.54688 21.2617C5.58789 21.2383 5.61426 21.2266 5.62598 21.2266C5.64941 21.2148 5.69336 21.2031 5.75781 21.1914C5.82812 21.1738 5.90137 21.1562 5.97754 21.1387C6.05957 21.1211 6.13574 21.1064 6.20605 21.0947C6.27637 21.083 6.32617 21.0742 6.35547 21.0684C6.50195 20.9629 6.5957 20.8486 6.63672 20.7256C6.67773 20.6025 6.72168 20.4502 6.76855 20.2686V18.6689C6.76855 18.6514 6.77148 18.6279 6.77734 18.5986C6.7832 18.5635 6.78906 18.5283 6.79492 18.4932C6.80664 18.4521 6.81543 18.417 6.82129 18.3877C6.82715 18.3525 6.83301 18.3262 6.83887 18.3086V15.9355C6.85059 15.5605 6.85938 15.2559 6.86523 15.0215C6.87695 14.7812 6.88574 14.5908 6.8916 14.4502C6.90332 14.3037 6.90918 14.1924 6.90918 14.1162C6.91504 14.04 6.91797 13.9756 6.91797 13.9229C6.91797 13.8057 6.91504 13.6885 6.90918 13.5713C6.90332 13.4482 6.90039 13.375 6.90039 13.3516C6.91797 13.0703 6.94434 12.8096 6.97949 12.5693C7.02051 12.3232 7.04102 12.0596 7.04102 11.7783C7.04102 11.6553 7.03809 11.5439 7.03223 11.4443C7.03223 11.3389 7.02637 11.2422 7.01465 11.1543C7.00293 11.0605 6.98242 10.9668 6.95312 10.873C6.92969 10.7793 6.8916 10.6768 6.83887 10.5654C6.82129 10.542 6.78613 10.5186 6.7334 10.4951C6.68652 10.4658 6.63379 10.4395 6.5752 10.416C6.52246 10.3867 6.46973 10.3633 6.41699 10.3457C6.37012 10.3223 6.33496 10.3105 6.31152 10.3105C6.29395 10.3047 6.25879 10.2988 6.20605 10.293C6.15332 10.2812 6.09473 10.2725 6.03027 10.2666C5.97168 10.2607 5.91309 10.2549 5.85449 10.249C5.80176 10.2432 5.76953 10.2373 5.75781 10.2314C5.75195 10.2314 5.71973 10.2256 5.66113 10.2139C5.6084 10.1963 5.57617 10.1816 5.56445 10.1699H5.24805C5.16016 10.1699 5.10156 10.167 5.07227 10.1611C5.04297 10.1553 4.99316 10.1377 4.92285 10.1084C4.84082 10.0791 4.76758 10.0381 4.70312 9.98535C4.63867 9.92676 4.60645 9.87109 4.60645 9.81836V9.71289C4.6709 9.58984 4.75 9.51367 4.84375 9.48438C4.9375 9.45508 5.03418 9.44043 5.13379 9.44043C5.18066 9.44043 5.22168 9.44336 5.25684 9.44922C5.29199 9.45508 5.32715 9.45801 5.3623 9.45801C5.40332 9.45801 5.4502 9.44629 5.50293 9.42285C5.55566 9.39941 5.59668 9.37891 5.62598 9.36133H5.71387H5.81055C5.83984 9.37305 5.9043 9.38477 6.00391 9.39648C6.10352 9.4082 6.20898 9.42285 6.32031 9.44043C6.4375 9.45215 6.5459 9.46387 6.64551 9.47559C6.74512 9.48145 6.80957 9.48438 6.83887 9.48438C6.90332 9.49609 7.02051 9.51074 7.19043 9.52832C7.36621 9.54004 7.54785 9.55469 7.73535 9.57227C7.92871 9.58398 8.11035 9.5957 8.28027 9.60742C8.4502 9.61914 8.56738 9.625 8.63184 9.625C8.91309 9.55469 9.18555 9.51367 9.44922 9.50195C9.71875 9.49023 9.98535 9.48438 10.249 9.48438H11.0049C11.0693 9.53125 11.1074 9.59277 11.1191 9.66895C11.1367 9.73926 11.1455 9.80371 11.1455 9.8623C11.1455 9.95605 11.1221 10.0264 11.0752 10.0732C11.0342 10.1201 10.9785 10.1553 10.9082 10.1787C10.8438 10.1963 10.7734 10.208 10.6973 10.2139C10.6211 10.2197 10.5479 10.2256 10.4775 10.2314C10.4365 10.2314 10.3633 10.2402 10.2578 10.2578C10.1582 10.2754 10.0879 10.293 10.0469 10.3105C10.041 10.3105 10.0264 10.3164 10.0029 10.3281C9.97949 10.3398 9.95312 10.3545 9.92383 10.3721C9.89453 10.3838 9.86523 10.3984 9.83594 10.416C9.8125 10.4277 9.79785 10.4365 9.79199 10.4424C9.78613 10.4424 9.76855 10.4453 9.73926 10.4512C9.71582 10.457 9.68945 10.4629 9.66016 10.4688C9.63086 10.4746 9.60156 10.4834 9.57227 10.4951C9.54297 10.5068 9.52539 10.5156 9.51953 10.5215C9.50781 10.5215 9.49023 10.5244 9.4668 10.5303C9.44922 10.5361 9.42871 10.542 9.40527 10.5479L9.31738 10.5654C9.2998 10.583 9.27637 10.6064 9.24707 10.6357C9.21777 10.6592 9.18848 10.6855 9.15918 10.7148C9.13574 10.7441 9.1123 10.7705 9.08887 10.7939C9.06543 10.8174 9.05078 10.832 9.04492 10.8379C9.04492 10.8496 9.04199 10.873 9.03613 10.9082C9.03027 10.9434 9.02148 10.9844 9.00977 11.0312C9.00391 11.0723 8.99805 11.1133 8.99219 11.1543C8.98633 11.1895 8.9834 11.2158 8.9834 11.2334C8.97754 11.3037 8.97168 11.4268 8.96582 11.6025C8.96582 11.7783 8.96289 11.9629 8.95703 12.1562C8.95703 12.3496 8.95703 12.5312 8.95703 12.7012C8.95703 12.8711 8.95703 12.9912 8.95703 13.0615L8.93945 13.2725V14.6084C8.92773 15.042 8.91602 15.3848 8.9043 15.6367C8.89844 15.8828 8.88965 16.0732 8.87793 16.208C8.87207 16.3428 8.86621 16.4395 8.86035 16.498C8.85449 16.5508 8.85156 16.5947 8.85156 16.6299C8.83398 16.7764 8.82227 16.9229 8.81641 17.0693C8.81055 17.2158 8.80176 17.3652 8.79004 17.5176C8.78418 17.5234 8.77832 17.5439 8.77246 17.5791C8.7666 17.6084 8.76074 17.6436 8.75488 17.6846C8.74902 17.7197 8.74316 17.7549 8.7373 17.79C8.73145 17.8193 8.72852 17.8398 8.72852 17.8516C8.72852 17.8809 8.73145 17.9482 8.7373 18.0537C8.74316 18.1533 8.74902 18.2646 8.75488 18.3877C8.7666 18.5049 8.77539 18.6162 8.78125 18.7217C8.78711 18.8271 8.79004 18.8916 8.79004 18.915C8.79004 18.9443 8.78711 19.0059 8.78125 19.0996C8.77539 19.1934 8.7666 19.293 8.75488 19.3984C8.74902 19.5039 8.74316 19.6035 8.7373 19.6973C8.73145 19.791 8.72852 19.8496 8.72852 19.873V20.2686C8.72852 20.3564 8.72852 20.4502 8.72852 20.5498C8.73438 20.6494 8.74902 20.7461 8.77246 20.8398C8.80176 20.9277 8.84277 21.0068 8.89551 21.0771C8.94824 21.1475 9.02441 21.1973 9.12402 21.2266C9.1416 21.2324 9.17676 21.2383 9.22949 21.2441C9.28809 21.25 9.34961 21.2559 9.41406 21.2617C9.48438 21.2617 9.54883 21.2646 9.60742 21.2705C9.67188 21.2764 9.71289 21.2822 9.73047 21.2881C9.75977 21.2881 9.8125 21.2998 9.88867 21.3232C9.96484 21.3467 10.0439 21.373 10.126 21.4023C10.2139 21.4258 10.2959 21.4521 10.3721 21.4814C10.4482 21.5049 10.5039 21.5254 10.5391 21.543C10.5742 21.5605 10.5947 21.5869 10.6006 21.6221C10.6064 21.6514 10.6094 21.6807 10.6094 21.71C10.6094 21.792 10.5889 21.8652 10.5479 21.9297C10.5068 21.9883 10.457 22.0381 10.3984 22.0791C10.3398 22.126 10.2725 22.167 10.1963 22.2021C10.126 22.2373 10.0615 22.2666 10.0029 22.29H9.92383C9.88281 22.2842 9.77441 22.2666 9.59863 22.2373C9.42871 22.2139 9.24414 22.1846 9.04492 22.1494C8.8457 22.1201 8.66113 22.0908 8.49121 22.0615C8.32129 22.0381 8.21582 22.0264 8.1748 22.0264C8.1748 22.0205 8.14551 22.0146 8.08691 22.0088C8.03418 22.0088 7.96973 22.0059 7.89355 22C7.82324 22 7.75 22 7.67383 22C7.60352 22 7.54785 22 7.50684 22ZM11.5674 9.65137C11.5674 9.62207 11.5732 9.58691 11.585 9.5459C11.5908 9.50488 11.6201 9.47852 11.6729 9.4668C11.7959 9.43164 11.8984 9.41113 11.9805 9.40527C12.0684 9.39941 12.1797 9.39648 12.3145 9.39648C12.5898 9.39648 12.8623 9.41992 13.1318 9.4668C13.4014 9.50781 13.6738 9.52832 13.9492 9.52832C14.0957 9.52832 14.2129 9.5166 14.3008 9.49316C14.3887 9.46973 14.5059 9.45801 14.6523 9.45801C14.7227 9.45801 14.7959 9.45801 14.8721 9.45801C14.9482 9.45801 15.0186 9.46094 15.083 9.4668C15.1533 9.4668 15.2119 9.4668 15.2588 9.4668C15.3115 9.4668 15.3467 9.4668 15.3643 9.4668C15.3994 9.4668 15.4551 9.46387 15.5312 9.45801C15.6074 9.45215 15.6865 9.44629 15.7686 9.44043C15.8564 9.42871 15.9385 9.41992 16.0146 9.41406C16.0908 9.4082 16.1436 9.40234 16.1729 9.39648C16.2197 9.37891 16.293 9.3584 16.3926 9.33496C16.4922 9.30566 16.6211 9.29102 16.7793 9.29102C16.8672 9.29102 16.9785 9.2998 17.1133 9.31738C17.1309 9.31738 17.1543 9.33789 17.1836 9.37891C17.2188 9.41406 17.2422 9.44336 17.2539 9.4668V9.51953C17.2539 9.53125 17.2539 9.5459 17.2539 9.56348C17.2598 9.5752 17.2627 9.58398 17.2627 9.58984C17.2627 9.67188 17.2275 9.73633 17.1572 9.7832C17.0869 9.83008 16.999 9.86816 16.8936 9.89746C16.7881 9.92676 16.6709 9.9502 16.542 9.96777C16.4131 9.98535 16.2871 10.0059 16.1641 10.0293C16.0469 10.0527 15.9385 10.082 15.8389 10.1172C15.7451 10.1523 15.6777 10.1992 15.6367 10.2578V10.5215C15.6367 10.7559 15.6631 10.999 15.7158 11.251C15.7744 11.4971 15.8359 11.7344 15.9004 11.9629C15.9121 11.9746 15.9355 12.0215 15.9707 12.1035C16.0059 12.1855 16.0264 12.25 16.0322 12.2969C16.0439 12.3145 16.0586 12.332 16.0762 12.3496C16.1113 12.3848 16.1289 12.4082 16.1289 12.4199C16.1289 12.4316 16.1289 12.4639 16.1289 12.5166C16.1348 12.5693 16.1377 12.6279 16.1377 12.6924C16.1436 12.7568 16.1494 12.8154 16.1553 12.8682C16.1611 12.9209 16.167 12.9531 16.1729 12.9648C16.1787 12.9766 16.1875 12.9941 16.1992 13.0176C16.2168 13.041 16.2314 13.0674 16.2432 13.0967C16.2607 13.126 16.2754 13.1553 16.2871 13.1846C16.2988 13.2139 16.3076 13.2344 16.3135 13.2461C16.4834 13.6562 16.6387 14.084 16.7793 14.5293C16.9199 14.9746 17.0576 15.417 17.1924 15.8564C17.292 16.2139 17.3857 16.5742 17.4736 16.9375C17.5674 17.2949 17.6758 17.6553 17.7988 18.0186C17.7988 18.0244 17.8047 18.042 17.8164 18.0713C17.8281 18.0947 17.8428 18.1211 17.8604 18.1504C17.8779 18.1738 17.8926 18.2002 17.9043 18.2295C17.916 18.2529 17.9219 18.2676 17.9219 18.2734C17.9277 18.291 17.9395 18.3232 17.957 18.3701C17.9805 18.417 18.0039 18.4668 18.0273 18.5195C18.0508 18.5723 18.0713 18.6221 18.0889 18.6689C18.1064 18.71 18.1152 18.7363 18.1152 18.748C18.1562 18.8301 18.1885 18.9033 18.2119 18.9678C18.2412 19.0322 18.2705 19.0938 18.2998 19.1523C18.335 19.2109 18.373 19.2666 18.4141 19.3193C18.4609 19.3721 18.5195 19.4248 18.5898 19.4775H18.6514H18.6689C18.6748 19.4775 18.6865 19.4717 18.7041 19.46C18.7275 19.4482 18.7393 19.4395 18.7393 19.4336C18.833 19.0293 18.9385 18.6338 19.0557 18.2471C19.1729 17.8545 19.29 17.459 19.4072 17.0605C19.4072 17.043 19.416 17.002 19.4336 16.9375C19.457 16.8672 19.4688 16.8174 19.4688 16.7881C19.4688 16.7822 19.4717 16.7617 19.4775 16.7266C19.4834 16.6914 19.4893 16.6533 19.4951 16.6123C19.501 16.5654 19.5068 16.5215 19.5127 16.4805C19.5244 16.4395 19.5303 16.4102 19.5303 16.3926C19.5303 16.375 19.5479 16.3252 19.583 16.2432C19.624 16.1553 19.6533 16.0938 19.6709 16.0586C19.7529 15.8594 19.8262 15.6631 19.8906 15.4697C19.9609 15.2705 20.0254 15.0713 20.084 14.8721C20.084 14.8486 20.0898 14.8076 20.1016 14.749C20.1133 14.6904 20.125 14.6318 20.1367 14.5732C20.1543 14.5088 20.1689 14.4531 20.1807 14.4062C20.1924 14.3594 20.1982 14.3301 20.1982 14.3184C20.2041 14.3125 20.2158 14.2949 20.2334 14.2656C20.2568 14.2363 20.2803 14.207 20.3037 14.1777C20.333 14.1426 20.3564 14.1133 20.374 14.0898C20.3975 14.0605 20.4121 14.0459 20.418 14.0459C20.4941 13.917 20.5352 13.7822 20.541 13.6416C20.5527 13.4951 20.582 13.3633 20.6289 13.2461C20.6289 13.2344 20.6377 13.1992 20.6553 13.1406C20.6787 13.0762 20.6904 13.0381 20.6904 13.0264C20.6904 13.0205 20.6934 13.0029 20.6992 12.9736C20.7051 12.9385 20.7109 12.9033 20.7168 12.8682C20.7227 12.8271 20.7256 12.792 20.7256 12.7627C20.7314 12.7275 20.7344 12.7041 20.7344 12.6924C20.7402 12.6807 20.752 12.6514 20.7695 12.6045C20.793 12.5576 20.8164 12.5078 20.8398 12.4551C20.8691 12.4023 20.8926 12.3525 20.9102 12.3057C20.9336 12.2588 20.9512 12.2266 20.9629 12.209C20.9688 12.1973 20.9717 12.165 20.9717 12.1123C20.9775 12.0537 20.9834 11.9922 20.9893 11.9277C20.9951 11.8574 20.998 11.793 20.998 11.7344C21.0039 11.6699 21.0068 11.626 21.0068 11.6025C21.0479 11.4268 21.0918 11.2568 21.1387 11.0928C21.1914 10.9287 21.2178 10.7529 21.2178 10.5654C21.2178 10.5186 21.2119 10.4658 21.2002 10.4072C21.1943 10.3428 21.1797 10.2842 21.1562 10.2314C21.1328 10.1729 21.1006 10.123 21.0596 10.082C21.0186 10.041 20.9658 10.0146 20.9014 10.0029L19.7412 9.8623C19.7354 9.8623 19.7031 9.83887 19.6445 9.79199C19.5918 9.73926 19.5537 9.69238 19.5303 9.65137V9.625C19.5303 9.5957 19.5449 9.56348 19.5742 9.52832C19.6035 9.49316 19.6387 9.46094 19.6797 9.43164C19.7266 9.39648 19.7734 9.37012 19.8203 9.35254C19.8672 9.3291 19.9082 9.31738 19.9434 9.31738H20.0225C20.0459 9.32324 20.0928 9.33203 20.1631 9.34375C20.2334 9.35547 20.3066 9.37012 20.3828 9.3877C20.459 9.40527 20.5293 9.42285 20.5938 9.44043C20.6641 9.45215 20.7109 9.46094 20.7344 9.4668H21.9648C22.3633 9.4668 22.7588 9.45508 23.1514 9.43164C23.5498 9.4082 23.9512 9.39648 24.3555 9.39648C24.4844 9.39648 24.5986 9.42578 24.6982 9.48438C24.8037 9.54297 24.8564 9.63965 24.8564 9.77441C24.8564 9.84473 24.8301 9.91211 24.7773 9.97656C24.7246 10.0352 24.6602 10.0645 24.584 10.0645H24.0479C23.9775 10.0703 23.8809 10.0908 23.7578 10.126C23.6406 10.1611 23.5205 10.2051 23.3975 10.2578C23.2744 10.3105 23.1602 10.3691 23.0547 10.4336C22.9492 10.4922 22.8789 10.5479 22.8438 10.6006C22.8379 10.6064 22.8232 10.6299 22.7998 10.6709C22.7822 10.7061 22.7676 10.7324 22.7559 10.75C22.7559 10.7617 22.7471 10.7969 22.7295 10.8555C22.7178 10.9082 22.7061 10.9375 22.6943 10.9434C22.6768 10.9727 22.6357 11.0518 22.5713 11.1807C22.5068 11.3037 22.4365 11.4355 22.3604 11.5762C22.2842 11.7168 22.2139 11.8516 22.1494 11.9805C22.085 12.1035 22.0439 12.1797 22.0264 12.209C22.0205 12.2148 22.0088 12.2441 21.9912 12.2969C21.9795 12.3496 21.9619 12.4082 21.9385 12.4727C21.915 12.5371 21.8916 12.6016 21.8682 12.666C21.8506 12.7305 21.833 12.7803 21.8154 12.8154C21.7217 13.1494 21.5957 13.4688 21.4375 13.7734C21.2852 14.0723 21.1416 14.3828 21.0068 14.7051C20.9541 14.875 20.9043 15.0361 20.8574 15.1885C20.8105 15.3408 20.7549 15.4932 20.6904 15.6455C20.6787 15.6572 20.667 15.6777 20.6553 15.707C20.6436 15.7305 20.6289 15.7568 20.6113 15.7861C20.5996 15.8154 20.5879 15.8447 20.5762 15.874C20.5703 15.8975 20.5674 15.9121 20.5674 15.918C20.4443 16.1055 20.3594 16.3018 20.3125 16.5068C20.2715 16.7119 20.2129 16.9199 20.1367 17.1309C20.0781 17.3242 20.0049 17.5088 19.917 17.6846C19.8291 17.8545 19.7471 18.0273 19.6709 18.2031C19.665 18.2148 19.6504 18.25 19.627 18.3086C19.6094 18.3672 19.5889 18.4316 19.5654 18.502C19.5479 18.5723 19.5273 18.6396 19.5039 18.7041C19.4863 18.7627 19.4746 18.8008 19.4688 18.8184C19.3809 19.0996 19.2666 19.3721 19.126 19.6357C18.9912 19.8936 18.8623 20.1543 18.7393 20.418C18.6924 20.5234 18.6367 20.667 18.5723 20.8486C18.5078 21.0303 18.4346 21.2119 18.3525 21.3936C18.2705 21.5752 18.1738 21.7334 18.0625 21.8682C17.957 21.9971 17.834 22.0615 17.6934 22.0615C17.6523 22.0615 17.6201 22.0586 17.5967 22.0527C17.5732 22.0527 17.5498 22.0498 17.5264 22.0439C17.5088 22.0322 17.4824 22.0117 17.4473 21.9824C17.418 21.9531 17.3828 21.9209 17.3418 21.8857C17.3066 21.8506 17.2744 21.8184 17.2451 21.7891C17.2158 21.7539 17.1982 21.7275 17.1924 21.71C17.1865 21.7041 17.1807 21.6865 17.1748 21.6572C17.1689 21.6221 17.1602 21.5869 17.1484 21.5518C17.1426 21.5107 17.1367 21.4756 17.1309 21.4463C17.125 21.4111 17.1191 21.3877 17.1133 21.376C17.1074 21.3584 17.0928 21.3145 17.0693 21.2441C17.0459 21.168 17.0166 21.0889 16.9814 21.0068C16.9521 20.9248 16.9258 20.8486 16.9023 20.7783C16.8789 20.708 16.8643 20.6641 16.8584 20.6465C16.8467 20.6289 16.8291 20.582 16.8057 20.5059C16.7881 20.4297 16.7676 20.3506 16.7441 20.2686C16.7207 20.1807 16.6973 20.1016 16.6738 20.0312C16.6562 19.9551 16.6475 19.9082 16.6475 19.8906C16.5889 19.7031 16.5244 19.5127 16.4541 19.3193C16.3838 19.1201 16.3105 18.9297 16.2344 18.748C16.2344 18.7422 16.2285 18.7275 16.2168 18.7041C16.2051 18.6748 16.1934 18.6455 16.1816 18.6162C16.1699 18.5869 16.1582 18.5576 16.1465 18.5283C16.1348 18.499 16.1289 18.4814 16.1289 18.4756C16.123 18.4697 16.1143 18.4463 16.1025 18.4053C16.0967 18.3643 16.0879 18.3203 16.0762 18.2734C16.0645 18.2266 16.0527 18.1855 16.041 18.1504C16.0352 18.1094 16.0322 18.0859 16.0322 18.0801C16.0264 18.0508 16.0088 17.9863 15.9795 17.8867C15.9502 17.7871 15.9238 17.7139 15.9004 17.667C15.7832 17.3916 15.6895 17.1162 15.6191 16.8408C15.5488 16.5596 15.4639 16.2783 15.3643 15.9971C15.3643 15.9912 15.3584 15.9736 15.3467 15.9443C15.335 15.915 15.3203 15.8857 15.3027 15.8564C15.2852 15.8213 15.2676 15.792 15.25 15.7686C15.2383 15.7393 15.2324 15.7246 15.2324 15.7246C15.2207 15.6953 15.2031 15.6543 15.1797 15.6016C15.1562 15.5488 15.1328 15.499 15.1094 15.4521C15.0859 15.3994 15.0654 15.3555 15.0479 15.3203C15.0361 15.2793 15.0303 15.2559 15.0303 15.25C15.0244 15.2441 15.0186 15.2207 15.0127 15.1797C15.0068 15.1387 14.998 15.0977 14.9863 15.0566C14.9805 15.0098 14.9746 14.9688 14.9688 14.9336C14.9629 14.8926 14.96 14.8721 14.96 14.8721C14.96 14.8428 14.9541 14.8018 14.9424 14.749C14.9307 14.6904 14.9189 14.6553 14.9072 14.6436C14.8955 14.6318 14.875 14.5938 14.8457 14.5293C14.8223 14.4648 14.793 14.3945 14.7578 14.3184C14.7285 14.2422 14.7021 14.1719 14.6787 14.1074C14.6553 14.0371 14.6406 13.9932 14.6348 13.9756C14.6113 13.9053 14.5938 13.8438 14.582 13.791C14.5762 13.7383 14.5703 13.6885 14.5645 13.6416C14.5586 13.5947 14.5498 13.5449 14.5381 13.4922C14.5322 13.4336 14.5205 13.3691 14.5029 13.2988C14.4619 13.1641 14.418 13.0088 14.3711 12.833C14.3301 12.6514 14.2803 12.4932 14.2217 12.3584C14.2217 12.3408 14.207 12.3027 14.1777 12.2441C14.1543 12.1855 14.125 12.124 14.0898 12.0596C14.0605 11.9893 14.0312 11.9248 14.002 11.8662C13.9727 11.8076 13.9551 11.7695 13.9492 11.752C13.9492 11.7402 13.9463 11.7168 13.9404 11.6816C13.9346 11.6406 13.9287 11.5996 13.9229 11.5586C13.917 11.5117 13.9111 11.4678 13.9053 11.4268C13.8994 11.3857 13.8936 11.3564 13.8877 11.3389C13.8877 11.3213 13.873 11.2803 13.8438 11.2158C13.8203 11.1514 13.791 11.084 13.7559 11.0137C13.7266 10.9375 13.6973 10.8701 13.668 10.8115C13.6387 10.7471 13.6211 10.7061 13.6152 10.6885C13.6152 10.6768 13.6064 10.6416 13.5889 10.583C13.5771 10.5186 13.5654 10.4834 13.5537 10.4775C13.5186 10.4189 13.4717 10.3691 13.4131 10.3281C13.3545 10.2871 13.29 10.2549 13.2197 10.2314C13.1494 10.2021 13.0762 10.1816 13 10.1699C12.9238 10.1523 12.8564 10.1436 12.7979 10.1436C12.7861 10.1377 12.7451 10.1318 12.6748 10.126C12.6045 10.1201 12.5254 10.1143 12.4375 10.1084C12.3555 10.1025 12.2764 10.0967 12.2002 10.0908C12.1299 10.0791 12.0859 10.0703 12.0684 10.0645C12.0625 10.0645 12.042 10.0586 12.0068 10.0469C11.9775 10.0293 11.9395 10.0088 11.8926 9.98535C11.8516 9.96191 11.8105 9.93848 11.7695 9.91504C11.7285 9.8916 11.6963 9.87402 11.6729 9.8623C11.6201 9.83887 11.5908 9.81543 11.585 9.79199C11.5732 9.7627 11.5674 9.71582 11.5674 9.65137Z" fill="black"/>
</svg>
