<svg width="32" height="28" viewBox="0 0 32 28" fill="none" xmlns="http://www.w3.org/2000/svg">
<rect width="28" height="28" rx="14" fill="#FF6B1A"/>
<path d="M7.85059 8.65137C7.85059 8.62207 7.85645 8.58691 7.86816 8.5459C7.87402 8.50488 7.90332 8.47852 7.95605 8.4668C8.0791 8.43164 8.18164 8.41113 8.26367 8.40527C8.35156 8.39941 8.46289 8.39648 8.59766 8.39648C8.87305 8.39648 9.14551 8.41992 9.41504 8.4668C9.68457 8.50781 9.95703 8.52832 10.2324 8.52832C10.3789 8.52832 10.4961 8.5166 10.584 8.49316C10.6719 8.46973 10.7891 8.45801 10.9355 8.45801C11.0059 8.45801 11.0791 8.45801 11.1553 8.45801C11.2314 8.45801 11.3018 8.46094 11.3662 8.4668C11.4365 8.4668 11.4951 8.4668 11.542 8.4668C11.5947 8.4668 11.6299 8.4668 11.6475 8.4668C11.6826 8.4668 11.7383 8.46387 11.8145 8.45801C11.8906 8.45215 11.9697 8.44629 12.0518 8.44043C12.1396 8.42871 12.2217 8.41992 12.2979 8.41406C12.374 8.4082 12.4268 8.40234 12.4561 8.39648C12.5029 8.37891 12.5762 8.3584 12.6758 8.33496C12.7754 8.30566 12.9043 8.29102 13.0625 8.29102C13.1504 8.29102 13.2617 8.2998 13.3965 8.31738C13.4141 8.31738 13.4375 8.33789 13.4668 8.37891C13.502 8.41406 13.5254 8.44336 13.5371 8.4668V8.51953C13.5371 8.53125 13.5371 8.5459 13.5371 8.56348C13.543 8.5752 13.5459 8.58398 13.5459 8.58984C13.5459 8.67188 13.5107 8.73633 13.4404 8.7832C13.3701 8.83008 13.2822 8.86816 13.1768 8.89746C13.0713 8.92676 12.9541 8.9502 12.8252 8.96777C12.6963 8.98535 12.5703 9.00586 12.4473 9.0293C12.3301 9.05273 12.2217 9.08203 12.1221 9.11719C12.0283 9.15234 11.9609 9.19922 11.9199 9.25781V9.52148C11.9199 9.75586 11.9463 9.99902 11.999 10.251C12.0576 10.4971 12.1191 10.7344 12.1836 10.9629C12.1953 10.9746 12.2188 11.0215 12.2539 11.1035C12.2891 11.1855 12.3096 11.25 12.3154 11.2969C12.3271 11.3145 12.3418 11.332 12.3594 11.3496C12.3945 11.3848 12.4121 11.4082 12.4121 11.4199C12.4121 11.4316 12.4121 11.4639 12.4121 11.5166C12.418 11.5693 12.4209 11.6279 12.4209 11.6924C12.4268 11.7568 12.4326 11.8154 12.4385 11.8682C12.4443 11.9209 12.4502 11.9531 12.4561 11.9648C12.4619 11.9766 12.4707 11.9941 12.4824 12.0176C12.5 12.041 12.5146 12.0674 12.5264 12.0967C12.5439 12.126 12.5586 12.1553 12.5703 12.1846C12.582 12.2139 12.5908 12.2344 12.5967 12.2461C12.7666 12.6562 12.9219 13.084 13.0625 13.5293C13.2031 13.9746 13.3408 14.417 13.4756 14.8564C13.5752 15.2139 13.6689 15.5742 13.7568 15.9375C13.8506 16.2949 13.959 16.6553 14.082 17.0186C14.082 17.0244 14.0879 17.042 14.0996 17.0713C14.1113 17.0947 14.126 17.1211 14.1436 17.1504C14.1611 17.1738 14.1758 17.2002 14.1875 17.2295C14.1992 17.2529 14.2051 17.2676 14.2051 17.2734C14.2109 17.291 14.2227 17.3232 14.2402 17.3701C14.2637 17.417 14.2871 17.4668 14.3105 17.5195C14.334 17.5723 14.3545 17.6221 14.3721 17.6689C14.3896 17.71 14.3984 17.7363 14.3984 17.748C14.4395 17.8301 14.4717 17.9033 14.4951 17.9678C14.5244 18.0322 14.5537 18.0938 14.583 18.1523C14.6182 18.2109 14.6562 18.2666 14.6973 18.3193C14.7441 18.3721 14.8027 18.4248 14.873 18.4775H14.9346H14.9521C14.958 18.4775 14.9697 18.4717 14.9873 18.46C15.0107 18.4482 15.0225 18.4395 15.0225 18.4336C15.1162 18.0293 15.2217 17.6338 15.3389 17.2471C15.4561 16.8545 15.5732 16.459 15.6904 16.0605C15.6904 16.043 15.6992 16.002 15.7168 15.9375C15.7402 15.8672 15.752 15.8174 15.752 15.7881C15.752 15.7822 15.7549 15.7617 15.7607 15.7266C15.7666 15.6914 15.7725 15.6533 15.7783 15.6123C15.7842 15.5654 15.79 15.5215 15.7959 15.4805C15.8076 15.4395 15.8135 15.4102 15.8135 15.3926C15.8135 15.375 15.8311 15.3252 15.8662 15.2432C15.9072 15.1553 15.9365 15.0938 15.9541 15.0586C16.0361 14.8594 16.1094 14.6631 16.1738 14.4697C16.2441 14.2705 16.3086 14.0713 16.3672 13.8721C16.3672 13.8486 16.373 13.8076 16.3848 13.749C16.3965 13.6904 16.4082 13.6318 16.4199 13.5732C16.4375 13.5088 16.4521 13.4531 16.4639 13.4062C16.4756 13.3594 16.4814 13.3301 16.4814 13.3184C16.4873 13.3125 16.499 13.2949 16.5166 13.2656C16.54 13.2363 16.5635 13.207 16.5869 13.1777C16.6162 13.1426 16.6396 13.1133 16.6572 13.0898C16.6807 13.0605 16.6953 13.0459 16.7012 13.0459C16.7773 12.917 16.8184 12.7822 16.8242 12.6416C16.8359 12.4951 16.8652 12.3633 16.9121 12.2461C16.9121 12.2344 16.9209 12.1992 16.9385 12.1406C16.9619 12.0762 16.9736 12.0381 16.9736 12.0264C16.9736 12.0205 16.9766 12.0029 16.9824 11.9736C16.9883 11.9385 16.9941 11.9033 17 11.8682C17.0059 11.8271 17.0088 11.792 17.0088 11.7627C17.0146 11.7275 17.0176 11.7041 17.0176 11.6924C17.0234 11.6807 17.0352 11.6514 17.0527 11.6045C17.0762 11.5576 17.0996 11.5078 17.123 11.4551C17.1523 11.4023 17.1758 11.3525 17.1934 11.3057C17.2168 11.2588 17.2344 11.2266 17.2461 11.209C17.252 11.1973 17.2549 11.165 17.2549 11.1123C17.2607 11.0537 17.2666 10.9922 17.2725 10.9277C17.2783 10.8574 17.2812 10.793 17.2812 10.7344C17.2871 10.6699 17.29 10.626 17.29 10.6025C17.3311 10.4268 17.375 10.2568 17.4219 10.0928C17.4746 9.92871 17.501 9.75293 17.501 9.56543C17.501 9.51855 17.4951 9.46582 17.4834 9.40723C17.4775 9.34277 17.4629 9.28418 17.4395 9.23145C17.416 9.17285 17.3838 9.12305 17.3428 9.08203C17.3018 9.04102 17.249 9.01465 17.1846 9.00293L16.0244 8.8623C16.0186 8.8623 15.9863 8.83887 15.9277 8.79199C15.875 8.73926 15.8369 8.69238 15.8135 8.65137V8.625C15.8135 8.5957 15.8281 8.56348 15.8574 8.52832C15.8867 8.49316 15.9219 8.46094 15.9629 8.43164C16.0098 8.39648 16.0566 8.37012 16.1035 8.35254C16.1504 8.3291 16.1914 8.31738 16.2266 8.31738H16.3057C16.3291 8.32324 16.376 8.33203 16.4463 8.34375C16.5166 8.35547 16.5898 8.37012 16.666 8.3877C16.7422 8.40527 16.8125 8.42285 16.877 8.44043C16.9473 8.45215 16.9941 8.46094 17.0176 8.4668H18.248C18.6465 8.4668 19.042 8.45508 19.4346 8.43164C19.833 8.4082 20.2344 8.39648 20.6387 8.39648C20.7676 8.39648 20.8818 8.42578 20.9814 8.48438C21.0869 8.54297 21.1396 8.63965 21.1396 8.77441C21.1396 8.84473 21.1133 8.91211 21.0605 8.97656C21.0078 9.03516 20.9434 9.06445 20.8672 9.06445H20.3311C20.2607 9.07031 20.1641 9.09082 20.041 9.12598C19.9238 9.16113 19.8037 9.20508 19.6807 9.25781C19.5576 9.31055 19.4434 9.36914 19.3379 9.43359C19.2324 9.49219 19.1621 9.54785 19.127 9.60059C19.1211 9.60645 19.1064 9.62988 19.083 9.6709C19.0654 9.70605 19.0508 9.73242 19.0391 9.75C19.0391 9.76172 19.0303 9.79688 19.0127 9.85547C19.001 9.9082 18.9893 9.9375 18.9775 9.94336C18.96 9.97266 18.9189 10.0518 18.8545 10.1807C18.79 10.3037 18.7197 10.4355 18.6436 10.5762C18.5674 10.7168 18.4971 10.8516 18.4326 10.9805C18.3682 11.1035 18.3271 11.1797 18.3096 11.209C18.3037 11.2148 18.292 11.2441 18.2744 11.2969C18.2627 11.3496 18.2451 11.4082 18.2217 11.4727C18.1982 11.5371 18.1748 11.6016 18.1514 11.666C18.1338 11.7305 18.1162 11.7803 18.0986 11.8154C18.0049 12.1494 17.8789 12.4688 17.7207 12.7734C17.5684 13.0723 17.4248 13.3828 17.29 13.7051C17.2373 13.875 17.1875 14.0361 17.1406 14.1885C17.0938 14.3408 17.0381 14.4932 16.9736 14.6455C16.9619 14.6572 16.9502 14.6777 16.9385 14.707C16.9268 14.7305 16.9121 14.7568 16.8945 14.7861C16.8828 14.8154 16.8711 14.8447 16.8594 14.874C16.8535 14.8975 16.8506 14.9121 16.8506 14.918C16.7275 15.1055 16.6426 15.3018 16.5957 15.5068C16.5547 15.7119 16.4961 15.9199 16.4199 16.1309C16.3613 16.3242 16.2881 16.5088 16.2002 16.6846C16.1123 16.8545 16.0303 17.0273 15.9541 17.2031C15.9482 17.2148 15.9336 17.25 15.9102 17.3086C15.8926 17.3672 15.8721 17.4316 15.8486 17.502C15.8311 17.5723 15.8105 17.6396 15.7871 17.7041C15.7695 17.7627 15.7578 17.8008 15.752 17.8184C15.6641 18.0996 15.5498 18.3721 15.4092 18.6357C15.2744 18.8936 15.1455 19.1543 15.0225 19.418C14.9756 19.5234 14.9199 19.667 14.8555 19.8486C14.791 20.0303 14.7178 20.2119 14.6357 20.3936C14.5537 20.5752 14.457 20.7334 14.3457 20.8682C14.2402 20.9971 14.1172 21.0615 13.9766 21.0615C13.9355 21.0615 13.9033 21.0586 13.8799 21.0527C13.8564 21.0527 13.833 21.0498 13.8096 21.0439C13.792 21.0322 13.7656 21.0117 13.7305 20.9824C13.7012 20.9531 13.666 20.9209 13.625 20.8857C13.5898 20.8506 13.5576 20.8184 13.5283 20.7891C13.499 20.7539 13.4814 20.7275 13.4756 20.71C13.4697 20.7041 13.4639 20.6865 13.458 20.6572C13.4521 20.6221 13.4434 20.5869 13.4316 20.5518C13.4258 20.5107 13.4199 20.4756 13.4141 20.4463C13.4082 20.4111 13.4023 20.3877 13.3965 20.376C13.3906 20.3584 13.376 20.3145 13.3525 20.2441C13.3291 20.168 13.2998 20.0889 13.2646 20.0068C13.2354 19.9248 13.209 19.8486 13.1855 19.7783C13.1621 19.708 13.1475 19.6641 13.1416 19.6465C13.1299 19.6289 13.1123 19.582 13.0889 19.5059C13.0713 19.4297 13.0508 19.3506 13.0273 19.2686C13.0039 19.1807 12.9805 19.1016 12.957 19.0312C12.9395 18.9551 12.9307 18.9082 12.9307 18.8906C12.8721 18.7031 12.8076 18.5127 12.7373 18.3193C12.667 18.1201 12.5938 17.9297 12.5176 17.748C12.5176 17.7422 12.5117 17.7275 12.5 17.7041C12.4883 17.6748 12.4766 17.6455 12.4648 17.6162C12.4531 17.5869 12.4414 17.5576 12.4297 17.5283C12.418 17.499 12.4121 17.4814 12.4121 17.4756C12.4062 17.4697 12.3975 17.4463 12.3857 17.4053C12.3799 17.3643 12.3711 17.3203 12.3594 17.2734C12.3477 17.2266 12.3359 17.1855 12.3242 17.1504C12.3184 17.1094 12.3154 17.0859 12.3154 17.0801C12.3096 17.0508 12.292 16.9863 12.2627 16.8867C12.2334 16.7871 12.207 16.7139 12.1836 16.667C12.0664 16.3916 11.9727 16.1162 11.9023 15.8408C11.832 15.5596 11.7471 15.2783 11.6475 14.9971C11.6475 14.9912 11.6416 14.9736 11.6299 14.9443C11.6182 14.915 11.6035 14.8857 11.5859 14.8564C11.5684 14.8213 11.5508 14.792 11.5332 14.7686C11.5215 14.7393 11.5156 14.7246 11.5156 14.7246C11.5039 14.6953 11.4863 14.6543 11.4629 14.6016C11.4395 14.5488 11.416 14.499 11.3926 14.4521C11.3691 14.3994 11.3486 14.3555 11.3311 14.3203C11.3193 14.2793 11.3135 14.2559 11.3135 14.25C11.3076 14.2441 11.3018 14.2207 11.2959 14.1797C11.29 14.1387 11.2812 14.0977 11.2695 14.0566C11.2637 14.0098 11.2578 13.9688 11.252 13.9336C11.2461 13.8926 11.2432 13.8721 11.2432 13.8721C11.2432 13.8428 11.2373 13.8018 11.2256 13.749C11.2139 13.6904 11.2021 13.6553 11.1904 13.6436C11.1787 13.6318 11.1582 13.5938 11.1289 13.5293C11.1055 13.4648 11.0762 13.3945 11.041 13.3184C11.0117 13.2422 10.9854 13.1719 10.9619 13.1074C10.9385 13.0371 10.9238 12.9932 10.918 12.9756C10.8945 12.9053 10.877 12.8438 10.8652 12.791C10.8594 12.7383 10.8535 12.6885 10.8477 12.6416C10.8418 12.5947 10.833 12.5449 10.8213 12.4922C10.8154 12.4336 10.8037 12.3691 10.7861 12.2988C10.7451 12.1641 10.7012 12.0088 10.6543 11.833C10.6133 11.6514 10.5635 11.4932 10.5049 11.3584C10.5049 11.3408 10.4902 11.3027 10.4609 11.2441C10.4375 11.1855 10.4082 11.124 10.373 11.0596C10.3438 10.9893 10.3145 10.9248 10.2852 10.8662C10.2559 10.8076 10.2383 10.7695 10.2324 10.752C10.2324 10.7402 10.2295 10.7168 10.2236 10.6816C10.2178 10.6406 10.2119 10.5996 10.2061 10.5586C10.2002 10.5117 10.1943 10.4678 10.1885 10.4268C10.1826 10.3857 10.1768 10.3564 10.1709 10.3389C10.1709 10.3213 10.1562 10.2803 10.127 10.2158C10.1035 10.1514 10.0742 10.084 10.0391 10.0137C10.0098 9.9375 9.98047 9.87012 9.95117 9.81152C9.92188 9.74707 9.9043 9.70605 9.89844 9.68848C9.89844 9.67676 9.88965 9.6416 9.87207 9.58301C9.86035 9.51855 9.84863 9.4834 9.83691 9.47754C9.80176 9.41895 9.75488 9.36914 9.69629 9.32812C9.6377 9.28711 9.57324 9.25488 9.50293 9.23145C9.43262 9.20215 9.35938 9.18164 9.2832 9.16992C9.20703 9.15234 9.13965 9.14355 9.08105 9.14355C9.06934 9.1377 9.02832 9.13184 8.95801 9.12598C8.8877 9.12012 8.80859 9.11426 8.7207 9.1084C8.63867 9.10254 8.55957 9.09668 8.4834 9.09082C8.41309 9.0791 8.36914 9.07031 8.35156 9.06445C8.3457 9.06445 8.3252 9.05859 8.29004 9.04688C8.26074 9.0293 8.22266 9.00879 8.17578 8.98535C8.13477 8.96191 8.09375 8.93848 8.05273 8.91504C8.01172 8.8916 7.97949 8.87402 7.95605 8.8623C7.90332 8.83887 7.87402 8.81543 7.86816 8.79199C7.85645 8.7627 7.85059 8.71582 7.85059 8.65137Z" fill="black"/>
</svg>
