<svg width="28" height="28" viewBox="0 0 28 28" fill="none" xmlns="http://www.w3.org/2000/svg">
<rect width="28" height="28" rx="14" fill="#FF6B1A"/>
<path d="M2.85059 8.65137C2.85059 8.62207 2.85645 8.58691 2.86816 8.5459C2.87402 8.50488 2.90332 8.47852 2.95605 8.4668C3.0791 8.43164 3.18164 8.41113 3.26367 8.40527C3.35156 8.39941 3.46289 8.39648 3.59766 8.39648C3.87305 8.39648 4.14551 8.41992 4.41504 8.4668C4.68457 8.50781 4.95703 8.52832 5.23242 8.52832C5.37891 8.52832 5.49609 8.5166 5.58398 8.49316C5.67188 8.46973 5.78906 8.45801 5.93555 8.45801C6.00586 8.45801 6.0791 8.45801 6.15527 8.45801C6.23145 8.45801 6.30176 8.46094 6.36621 8.4668C6.43652 8.4668 6.49512 8.4668 6.54199 8.4668C6.59473 8.4668 6.62988 8.4668 6.64746 8.4668C6.68262 8.4668 6.73828 8.46387 6.81445 8.45801C6.89062 8.45215 6.96973 8.44629 7.05176 8.44043C7.13965 8.42871 7.22168 8.41992 7.29785 8.41406C7.37402 8.4082 7.42676 8.40234 7.45605 8.39648C7.50293 8.37891 7.57617 8.3584 7.67578 8.33496C7.77539 8.30566 7.9043 8.29102 8.0625 8.29102C8.15039 8.29102 8.26172 8.2998 8.39648 8.31738C8.41406 8.31738 8.4375 8.33789 8.4668 8.37891C8.50195 8.41406 8.52539 8.44336 8.53711 8.4668V8.51953C8.53711 8.53125 8.53711 8.5459 8.53711 8.56348C8.54297 8.5752 8.5459 8.58398 8.5459 8.58984C8.5459 8.67188 8.51074 8.73633 8.44043 8.7832C8.37012 8.83008 8.28223 8.86816 8.17676 8.89746C8.07129 8.92676 7.9541 8.9502 7.8252 8.96777C7.69629 8.98535 7.57031 9.00586 7.44727 9.0293C7.33008 9.05273 7.22168 9.08203 7.12207 9.11719C7.02832 9.15234 6.96094 9.19922 6.91992 9.25781V9.52148C6.91992 9.75586 6.94629 9.99902 6.99902 10.251C7.05762 10.4971 7.11914 10.7344 7.18359 10.9629C7.19531 10.9746 7.21875 11.0215 7.25391 11.1035C7.28906 11.1855 7.30957 11.25 7.31543 11.2969C7.32715 11.3145 7.3418 11.332 7.35938 11.3496C7.39453 11.3848 7.41211 11.4082 7.41211 11.4199C7.41211 11.4316 7.41211 11.4639 7.41211 11.5166C7.41797 11.5693 7.4209 11.6279 7.4209 11.6924C7.42676 11.7568 7.43262 11.8154 7.43848 11.8682C7.44434 11.9209 7.4502 11.9531 7.45605 11.9648C7.46191 11.9766 7.4707 11.9941 7.48242 12.0176C7.5 12.041 7.51465 12.0674 7.52637 12.0967C7.54395 12.126 7.55859 12.1553 7.57031 12.1846C7.58203 12.2139 7.59082 12.2344 7.59668 12.2461C7.7666 12.6562 7.92188 13.084 8.0625 13.5293C8.20312 13.9746 8.34082 14.417 8.47559 14.8564C8.5752 15.2139 8.66895 15.5742 8.75684 15.9375C8.85059 16.2949 8.95898 16.6553 9.08203 17.0186C9.08203 17.0244 9.08789 17.042 9.09961 17.0713C9.11133 17.0947 9.12598 17.1211 9.14355 17.1504C9.16113 17.1738 9.17578 17.2002 9.1875 17.2295C9.19922 17.2529 9.20508 17.2676 9.20508 17.2734C9.21094 17.291 9.22266 17.3232 9.24023 17.3701C9.26367 17.417 9.28711 17.4668 9.31055 17.5195C9.33398 17.5723 9.35449 17.6221 9.37207 17.6689C9.38965 17.71 9.39844 17.7363 9.39844 17.748C9.43945 17.8301 9.47168 17.9033 9.49512 17.9678C9.52441 18.0322 9.55371 18.0938 9.58301 18.1523C9.61816 18.2109 9.65625 18.2666 9.69727 18.3193C9.74414 18.3721 9.80273 18.4248 9.87305 18.4775H9.93457H9.95215C9.95801 18.4775 9.96973 18.4717 9.9873 18.46C10.0107 18.4482 10.0225 18.4395 10.0225 18.4336C10.1162 18.0293 10.2217 17.6338 10.3389 17.2471C10.4561 16.8545 10.5732 16.459 10.6904 16.0605C10.6904 16.043 10.6992 16.002 10.7168 15.9375C10.7402 15.8672 10.752 15.8174 10.752 15.7881C10.752 15.7822 10.7549 15.7617 10.7607 15.7266C10.7666 15.6914 10.7725 15.6533 10.7783 15.6123C10.7842 15.5654 10.79 15.5215 10.7959 15.4805C10.8076 15.4395 10.8135 15.4102 10.8135 15.3926C10.8135 15.375 10.8311 15.3252 10.8662 15.2432C10.9072 15.1553 10.9365 15.0938 10.9541 15.0586C11.0361 14.8594 11.1094 14.6631 11.1738 14.4697C11.2441 14.2705 11.3086 14.0713 11.3672 13.8721C11.3672 13.8486 11.373 13.8076 11.3848 13.749C11.3965 13.6904 11.4082 13.6318 11.4199 13.5732C11.4375 13.5088 11.4521 13.4531 11.4639 13.4062C11.4756 13.3594 11.4814 13.3301 11.4814 13.3184C11.4873 13.3125 11.499 13.2949 11.5166 13.2656C11.54 13.2363 11.5635 13.207 11.5869 13.1777C11.6162 13.1426 11.6396 13.1133 11.6572 13.0898C11.6807 13.0605 11.6953 13.0459 11.7012 13.0459C11.7773 12.917 11.8184 12.7822 11.8242 12.6416C11.8359 12.4951 11.8652 12.3633 11.9121 12.2461C11.9121 12.2344 11.9209 12.1992 11.9385 12.1406C11.9619 12.0762 11.9736 12.0381 11.9736 12.0264C11.9736 12.0205 11.9766 12.0029 11.9824 11.9736C11.9883 11.9385 11.9941 11.9033 12 11.8682C12.0059 11.8271 12.0088 11.792 12.0088 11.7627C12.0146 11.7275 12.0176 11.7041 12.0176 11.6924C12.0234 11.6807 12.0352 11.6514 12.0527 11.6045C12.0762 11.5576 12.0996 11.5078 12.123 11.4551C12.1523 11.4023 12.1758 11.3525 12.1934 11.3057C12.2168 11.2588 12.2344 11.2266 12.2461 11.209C12.252 11.1973 12.2549 11.165 12.2549 11.1123C12.2607 11.0537 12.2666 10.9922 12.2725 10.9277C12.2783 10.8574 12.2812 10.793 12.2812 10.7344C12.2871 10.6699 12.29 10.626 12.29 10.6025C12.3311 10.4268 12.375 10.2568 12.4219 10.0928C12.4746 9.92871 12.501 9.75293 12.501 9.56543C12.501 9.51855 12.4951 9.46582 12.4834 9.40723C12.4775 9.34277 12.4629 9.28418 12.4395 9.23145C12.416 9.17285 12.3838 9.12305 12.3428 9.08203C12.3018 9.04102 12.249 9.01465 12.1846 9.00293L11.0244 8.8623C11.0186 8.8623 10.9863 8.83887 10.9277 8.79199C10.875 8.73926 10.8369 8.69238 10.8135 8.65137V8.625C10.8135 8.5957 10.8281 8.56348 10.8574 8.52832C10.8867 8.49316 10.9219 8.46094 10.9629 8.43164C11.0098 8.39648 11.0566 8.37012 11.1035 8.35254C11.1504 8.3291 11.1914 8.31738 11.2266 8.31738H11.3057C11.3291 8.32324 11.376 8.33203 11.4463 8.34375C11.5166 8.35547 11.5898 8.37012 11.666 8.3877C11.7422 8.40527 11.8125 8.42285 11.877 8.44043C11.9473 8.45215 11.9941 8.46094 12.0176 8.4668H13.248C13.6465 8.4668 14.042 8.45508 14.4346 8.43164C14.833 8.4082 15.2344 8.39648 15.6387 8.39648C15.7676 8.39648 15.8818 8.42578 15.9814 8.48438C16.0869 8.54297 16.1396 8.63965 16.1396 8.77441C16.1396 8.84473 16.1133 8.91211 16.0605 8.97656C16.0078 9.03516 15.9434 9.06445 15.8672 9.06445H15.3311C15.2607 9.07031 15.1641 9.09082 15.041 9.12598C14.9238 9.16113 14.8037 9.20508 14.6807 9.25781C14.5576 9.31055 14.4434 9.36914 14.3379 9.43359C14.2324 9.49219 14.1621 9.54785 14.127 9.60059C14.1211 9.60645 14.1064 9.62988 14.083 9.6709C14.0654 9.70605 14.0508 9.73242 14.0391 9.75C14.0391 9.76172 14.0303 9.79688 14.0127 9.85547C14.001 9.9082 13.9893 9.9375 13.9775 9.94336C13.96 9.97266 13.9189 10.0518 13.8545 10.1807C13.79 10.3037 13.7197 10.4355 13.6436 10.5762C13.5674 10.7168 13.4971 10.8516 13.4326 10.9805C13.3682 11.1035 13.3271 11.1797 13.3096 11.209C13.3037 11.2148 13.292 11.2441 13.2744 11.2969C13.2627 11.3496 13.2451 11.4082 13.2217 11.4727C13.1982 11.5371 13.1748 11.6016 13.1514 11.666C13.1338 11.7305 13.1162 11.7803 13.0986 11.8154C13.0049 12.1494 12.8789 12.4688 12.7207 12.7734C12.5684 13.0723 12.4248 13.3828 12.29 13.7051C12.2373 13.875 12.1875 14.0361 12.1406 14.1885C12.0938 14.3408 12.0381 14.4932 11.9736 14.6455C11.9619 14.6572 11.9502 14.6777 11.9385 14.707C11.9268 14.7305 11.9121 14.7568 11.8945 14.7861C11.8828 14.8154 11.8711 14.8447 11.8594 14.874C11.8535 14.8975 11.8506 14.9121 11.8506 14.918C11.7275 15.1055 11.6426 15.3018 11.5957 15.5068C11.5547 15.7119 11.4961 15.9199 11.4199 16.1309C11.3613 16.3242 11.2881 16.5088 11.2002 16.6846C11.1123 16.8545 11.0303 17.0273 10.9541 17.2031C10.9482 17.2148 10.9336 17.25 10.9102 17.3086C10.8926 17.3672 10.8721 17.4316 10.8486 17.502C10.8311 17.5723 10.8105 17.6396 10.7871 17.7041C10.7695 17.7627 10.7578 17.8008 10.752 17.8184C10.6641 18.0996 10.5498 18.3721 10.4092 18.6357C10.2744 18.8936 10.1455 19.1543 10.0225 19.418C9.97559 19.5234 9.91992 19.667 9.85547 19.8486C9.79102 20.0303 9.71777 20.2119 9.63574 20.3936C9.55371 20.5752 9.45703 20.7334 9.3457 20.8682C9.24023 20.9971 9.11719 21.0615 8.97656 21.0615C8.93555 21.0615 8.90332 21.0586 8.87988 21.0527C8.85645 21.0527 8.83301 21.0498 8.80957 21.0439C8.79199 21.0322 8.76562 21.0117 8.73047 20.9824C8.70117 20.9531 8.66602 20.9209 8.625 20.8857C8.58984 20.8506 8.55762 20.8184 8.52832 20.7891C8.49902 20.7539 8.48145 20.7275 8.47559 20.71C8.46973 20.7041 8.46387 20.6865 8.45801 20.6572C8.45215 20.6221 8.44336 20.5869 8.43164 20.5518C8.42578 20.5107 8.41992 20.4756 8.41406 20.4463C8.4082 20.4111 8.40234 20.3877 8.39648 20.376C8.39062 20.3584 8.37598 20.3145 8.35254 20.2441C8.3291 20.168 8.2998 20.0889 8.26465 20.0068C8.23535 19.9248 8.20898 19.8486 8.18555 19.7783C8.16211 19.708 8.14746 19.6641 8.1416 19.6465C8.12988 19.6289 8.1123 19.582 8.08887 19.5059C8.07129 19.4297 8.05078 19.3506 8.02734 19.2686C8.00391 19.1807 7.98047 19.1016 7.95703 19.0312C7.93945 18.9551 7.93066 18.9082 7.93066 18.8906C7.87207 18.7031 7.80762 18.5127 7.7373 18.3193C7.66699 18.1201 7.59375 17.9297 7.51758 17.748C7.51758 17.7422 7.51172 17.7275 7.5 17.7041C7.48828 17.6748 7.47656 17.6455 7.46484 17.6162C7.45312 17.5869 7.44141 17.5576 7.42969 17.5283C7.41797 17.499 7.41211 17.4814 7.41211 17.4756C7.40625 17.4697 7.39746 17.4463 7.38574 17.4053C7.37988 17.3643 7.37109 17.3203 7.35938 17.2734C7.34766 17.2266 7.33594 17.1855 7.32422 17.1504C7.31836 17.1094 7.31543 17.0859 7.31543 17.0801C7.30957 17.0508 7.29199 16.9863 7.2627 16.8867C7.2334 16.7871 7.20703 16.7139 7.18359 16.667C7.06641 16.3916 6.97266 16.1162 6.90234 15.8408C6.83203 15.5596 6.74707 15.2783 6.64746 14.9971C6.64746 14.9912 6.6416 14.9736 6.62988 14.9443C6.61816 14.915 6.60352 14.8857 6.58594 14.8564C6.56836 14.8213 6.55078 14.792 6.5332 14.7686C6.52148 14.7393 6.51562 14.7246 6.51562 14.7246C6.50391 14.6953 6.48633 14.6543 6.46289 14.6016C6.43945 14.5488 6.41602 14.499 6.39258 14.4521C6.36914 14.3994 6.34863 14.3555 6.33105 14.3203C6.31934 14.2793 6.31348 14.2559 6.31348 14.25C6.30762 14.2441 6.30176 14.2207 6.2959 14.1797C6.29004 14.1387 6.28125 14.0977 6.26953 14.0566C6.26367 14.0098 6.25781 13.9688 6.25195 13.9336C6.24609 13.8926 6.24316 13.8721 6.24316 13.8721C6.24316 13.8428 6.2373 13.8018 6.22559 13.749C6.21387 13.6904 6.20215 13.6553 6.19043 13.6436C6.17871 13.6318 6.1582 13.5938 6.12891 13.5293C6.10547 13.4648 6.07617 13.3945 6.04102 13.3184C6.01172 13.2422 5.98535 13.1719 5.96191 13.1074C5.93848 13.0371 5.92383 12.9932 5.91797 12.9756C5.89453 12.9053 5.87695 12.8438 5.86523 12.791C5.85938 12.7383 5.85352 12.6885 5.84766 12.6416C5.8418 12.5947 5.83301 12.5449 5.82129 12.4922C5.81543 12.4336 5.80371 12.3691 5.78613 12.2988C5.74512 12.1641 5.70117 12.0088 5.6543 11.833C5.61328 11.6514 5.56348 11.4932 5.50488 11.3584C5.50488 11.3408 5.49023 11.3027 5.46094 11.2441C5.4375 11.1855 5.4082 11.124 5.37305 11.0596C5.34375 10.9893 5.31445 10.9248 5.28516 10.8662C5.25586 10.8076 5.23828 10.7695 5.23242 10.752C5.23242 10.7402 5.22949 10.7168 5.22363 10.6816C5.21777 10.6406 5.21191 10.5996 5.20605 10.5586C5.2002 10.5117 5.19434 10.4678 5.18848 10.4268C5.18262 10.3857 5.17676 10.3564 5.1709 10.3389C5.1709 10.3213 5.15625 10.2803 5.12695 10.2158C5.10352 10.1514 5.07422 10.084 5.03906 10.0137C5.00977 9.9375 4.98047 9.87012 4.95117 9.81152C4.92188 9.74707 4.9043 9.70605 4.89844 9.68848C4.89844 9.67676 4.88965 9.6416 4.87207 9.58301C4.86035 9.51855 4.84863 9.4834 4.83691 9.47754C4.80176 9.41895 4.75488 9.36914 4.69629 9.32812C4.6377 9.28711 4.57324 9.25488 4.50293 9.23145C4.43262 9.20215 4.35938 9.18164 4.2832 9.16992C4.20703 9.15234 4.13965 9.14355 4.08105 9.14355C4.06934 9.1377 4.02832 9.13184 3.95801 9.12598C3.8877 9.12012 3.80859 9.11426 3.7207 9.1084C3.63867 9.10254 3.55957 9.09668 3.4834 9.09082C3.41309 9.0791 3.36914 9.07031 3.35156 9.06445C3.3457 9.06445 3.3252 9.05859 3.29004 9.04688C3.26074 9.0293 3.22266 9.00879 3.17578 8.98535C3.13477 8.96191 3.09375 8.93848 3.05273 8.91504C3.01172 8.8916 2.97949 8.87402 2.95605 8.8623C2.90332 8.83887 2.87402 8.81543 2.86816 8.79199C2.85645 8.7627 2.85059 8.71582 2.85059 8.65137ZM19.0225 21C18.9756 21 18.9082 21 18.8203 21C18.7383 21 18.6533 21 18.5654 21C18.4775 21.0059 18.3955 21.0088 18.3193 21.0088C18.249 21.0146 18.2051 21.0205 18.1875 21.0264C18.1465 21.0322 18.1055 21.0381 18.0645 21.0439C18.0293 21.0498 17.9941 21.0557 17.959 21.0615C17.9238 21.0674 17.8945 21.0732 17.8711 21.0791C17.8594 21.0791 17.8389 21.082 17.8096 21.0879C17.7861 21.0938 17.7598 21.0996 17.7305 21.1055C17.7012 21.1172 17.6748 21.126 17.6514 21.1318C17.6279 21.1377 17.6133 21.1406 17.6074 21.1406H17.0801C17.0098 21.1406 16.9453 21.1436 16.8867 21.1494C16.834 21.1611 16.7812 21.167 16.7285 21.167C16.582 21.167 16.4443 21.1436 16.3154 21.0967C16.1924 21.0557 16.0811 20.9619 15.9814 20.8154C16.0225 20.71 16.0781 20.6396 16.1484 20.6045C16.2246 20.5693 16.3125 20.5283 16.4121 20.4814C16.418 20.4756 16.4385 20.4639 16.4736 20.4463C16.5146 20.4229 16.5557 20.3994 16.5967 20.376C16.6436 20.3525 16.6846 20.332 16.7197 20.3145C16.7607 20.2969 16.7842 20.2881 16.79 20.2881H16.9834C17.001 20.2881 17.0273 20.2793 17.0625 20.2617C17.1035 20.2383 17.1299 20.2266 17.1416 20.2266C17.165 20.2148 17.209 20.2031 17.2734 20.1914C17.3438 20.1738 17.417 20.1562 17.4932 20.1387C17.5752 20.1211 17.6514 20.1064 17.7217 20.0947C17.792 20.083 17.8418 20.0742 17.8711 20.0684C18.0176 19.9629 18.1113 19.8486 18.1523 19.7256C18.1934 19.6025 18.2373 19.4502 18.2842 19.2686V17.6689C18.2842 17.6514 18.2871 17.6279 18.293 17.5986C18.2988 17.5635 18.3047 17.5283 18.3105 17.4932C18.3223 17.4521 18.3311 17.417 18.3369 17.3877C18.3428 17.3525 18.3486 17.3262 18.3545 17.3086V14.9355C18.3662 14.5605 18.375 14.2559 18.3809 14.0215C18.3926 13.7812 18.4014 13.5908 18.4072 13.4502C18.4189 13.3037 18.4248 13.1924 18.4248 13.1162C18.4307 13.04 18.4336 12.9756 18.4336 12.9229C18.4336 12.8057 18.4307 12.6885 18.4248 12.5713C18.4189 12.4482 18.416 12.375 18.416 12.3516C18.4336 12.0703 18.46 11.8096 18.4951 11.5693C18.5361 11.3232 18.5566 11.0596 18.5566 10.7783C18.5566 10.6553 18.5537 10.5439 18.5479 10.4443C18.5479 10.3389 18.542 10.2422 18.5303 10.1543C18.5186 10.0605 18.498 9.9668 18.4688 9.87305C18.4453 9.7793 18.4072 9.67676 18.3545 9.56543C18.3369 9.54199 18.3018 9.51855 18.249 9.49512C18.2021 9.46582 18.1494 9.43945 18.0908 9.41602C18.0381 9.38672 17.9854 9.36328 17.9326 9.3457C17.8857 9.32227 17.8506 9.31055 17.8271 9.31055C17.8096 9.30469 17.7744 9.29883 17.7217 9.29297C17.6689 9.28125 17.6104 9.27246 17.5459 9.2666C17.4873 9.26074 17.4287 9.25488 17.3701 9.24902C17.3174 9.24316 17.2852 9.2373 17.2734 9.23145C17.2676 9.23145 17.2354 9.22559 17.1768 9.21387C17.124 9.19629 17.0918 9.18164 17.0801 9.16992H16.7637C16.6758 9.16992 16.6172 9.16699 16.5879 9.16113C16.5586 9.15527 16.5088 9.1377 16.4385 9.1084C16.3564 9.0791 16.2832 9.03809 16.2188 8.98535C16.1543 8.92676 16.1221 8.87109 16.1221 8.81836V8.71289C16.1865 8.58984 16.2656 8.51367 16.3594 8.48438C16.4531 8.45508 16.5498 8.44043 16.6494 8.44043C16.6963 8.44043 16.7373 8.44336 16.7725 8.44922C16.8076 8.45508 16.8428 8.45801 16.8779 8.45801C16.9189 8.45801 16.9658 8.44629 17.0186 8.42285C17.0713 8.39941 17.1123 8.37891 17.1416 8.36133H17.2295H17.3262C17.3555 8.37305 17.4199 8.38477 17.5195 8.39648C17.6191 8.4082 17.7246 8.42285 17.8359 8.44043C17.9531 8.45215 18.0615 8.46387 18.1611 8.47559C18.2607 8.48145 18.3252 8.48438 18.3545 8.48438C18.4189 8.49609 18.5361 8.51074 18.7061 8.52832C18.8818 8.54004 19.0635 8.55469 19.251 8.57227C19.4443 8.58398 19.626 8.5957 19.7959 8.60742C19.9658 8.61914 20.083 8.625 20.1475 8.625C20.4287 8.55469 20.7012 8.51367 20.9648 8.50195C21.2344 8.49023 21.501 8.48438 21.7646 8.48438H22.5205C22.585 8.53125 22.623 8.59277 22.6348 8.66895C22.6523 8.73926 22.6611 8.80371 22.6611 8.8623C22.6611 8.95605 22.6377 9.02637 22.5908 9.07324C22.5498 9.12012 22.4941 9.15527 22.4238 9.17871C22.3594 9.19629 22.2891 9.20801 22.2129 9.21387C22.1367 9.21973 22.0635 9.22559 21.9932 9.23145C21.9521 9.23145 21.8789 9.24023 21.7734 9.25781C21.6738 9.27539 21.6035 9.29297 21.5625 9.31055C21.5566 9.31055 21.542 9.31641 21.5186 9.32812C21.4951 9.33984 21.4688 9.35449 21.4395 9.37207C21.4102 9.38379 21.3809 9.39844 21.3516 9.41602C21.3281 9.42773 21.3135 9.43652 21.3076 9.44238C21.3018 9.44238 21.2842 9.44531 21.2549 9.45117C21.2314 9.45703 21.2051 9.46289 21.1758 9.46875C21.1465 9.47461 21.1172 9.4834 21.0879 9.49512C21.0586 9.50684 21.041 9.51562 21.0352 9.52148C21.0234 9.52148 21.0059 9.52441 20.9824 9.53027C20.9648 9.53613 20.9443 9.54199 20.9209 9.54785L20.833 9.56543C20.8154 9.58301 20.792 9.60645 20.7627 9.63574C20.7334 9.65918 20.7041 9.68555 20.6748 9.71484C20.6514 9.74414 20.6279 9.77051 20.6045 9.79395C20.5811 9.81738 20.5664 9.83203 20.5605 9.83789C20.5605 9.84961 20.5576 9.87305 20.5518 9.9082C20.5459 9.94336 20.5371 9.98438 20.5254 10.0312C20.5195 10.0723 20.5137 10.1133 20.5078 10.1543C20.502 10.1895 20.499 10.2158 20.499 10.2334C20.4932 10.3037 20.4873 10.4268 20.4814 10.6025C20.4814 10.7783 20.4785 10.9629 20.4727 11.1562C20.4727 11.3496 20.4727 11.5312 20.4727 11.7012C20.4727 11.8711 20.4727 11.9912 20.4727 12.0615L20.4551 12.2725V13.6084C20.4434 14.042 20.4316 14.3848 20.4199 14.6367C20.4141 14.8828 20.4053 15.0732 20.3936 15.208C20.3877 15.3428 20.3818 15.4395 20.376 15.498C20.3701 15.5508 20.3672 15.5947 20.3672 15.6299C20.3496 15.7764 20.3379 15.9229 20.332 16.0693C20.3262 16.2158 20.3174 16.3652 20.3057 16.5176C20.2998 16.5234 20.2939 16.5439 20.2881 16.5791C20.2822 16.6084 20.2764 16.6436 20.2705 16.6846C20.2646 16.7197 20.2588 16.7549 20.2529 16.79C20.2471 16.8193 20.2441 16.8398 20.2441 16.8516C20.2441 16.8809 20.2471 16.9482 20.2529 17.0537C20.2588 17.1533 20.2646 17.2646 20.2705 17.3877C20.2822 17.5049 20.291 17.6162 20.2969 17.7217C20.3027 17.8271 20.3057 17.8916 20.3057 17.915C20.3057 17.9443 20.3027 18.0059 20.2969 18.0996C20.291 18.1934 20.2822 18.293 20.2705 18.3984C20.2646 18.5039 20.2588 18.6035 20.2529 18.6973C20.2471 18.791 20.2441 18.8496 20.2441 18.873V19.2686C20.2441 19.3564 20.2441 19.4502 20.2441 19.5498C20.25 19.6494 20.2646 19.7461 20.2881 19.8398C20.3174 19.9277 20.3584 20.0068 20.4111 20.0771C20.4639 20.1475 20.54 20.1973 20.6396 20.2266C20.6572 20.2324 20.6924 20.2383 20.7451 20.2441C20.8037 20.25 20.8652 20.2559 20.9297 20.2617C21 20.2617 21.0645 20.2646 21.123 20.2705C21.1875 20.2764 21.2285 20.2822 21.2461 20.2881C21.2754 20.2881 21.3281 20.2998 21.4043 20.3232C21.4805 20.3467 21.5596 20.373 21.6416 20.4023C21.7295 20.4258 21.8115 20.4521 21.8877 20.4814C21.9639 20.5049 22.0195 20.5254 22.0547 20.543C22.0898 20.5605 22.1104 20.5869 22.1162 20.6221C22.1221 20.6514 22.125 20.6807 22.125 20.71C22.125 20.792 22.1045 20.8652 22.0635 20.9297C22.0225 20.9883 21.9727 21.0381 21.9141 21.0791C21.8555 21.126 21.7881 21.167 21.7119 21.2021C21.6416 21.2373 21.5771 21.2666 21.5186 21.29H21.4395C21.3984 21.2842 21.29 21.2666 21.1143 21.2373C20.9443 21.2139 20.7598 21.1846 20.5605 21.1494C20.3613 21.1201 20.1768 21.0908 20.0068 21.0615C19.8369 21.0381 19.7314 21.0264 19.6904 21.0264C19.6904 21.0205 19.6611 21.0146 19.6025 21.0088C19.5498 21.0088 19.4854 21.0059 19.4092 21C19.3389 21 19.2656 21 19.1895 21C19.1191 21 19.0635 21 19.0225 21Z" fill="black"/>
</svg>
